<svg width="20" height="20" viewBox="0 0 20 20" fill="none" xmlns="http://www.w3.org/2000/svg">
<path d="M15.6245 20H4.37681C2.35094 20 0.702148 18.3512 0.702148 16.3266V3.67466C0.702148 1.64879 2.35094 0 4.37681 0H15.6245C17.6503 0 19.2978 1.64879 19.2978 3.67466V16.3266C19.2978 18.3525 17.6503 20 15.6245 20ZM4.37681 1.6969C3.28586 1.6969 2.39905 2.58501 2.39905 3.67466V16.3266C2.39905 17.4163 3.28716 18.3044 4.37681 18.3044H15.6245C16.7154 18.3044 17.6022 17.415 17.6022 16.3266V3.67466C17.6022 2.58371 16.7141 1.6969 15.6245 1.6969H4.37681Z" fill="#818181"/>
</svg>
