<svg width="28" height="50" viewBox="0 0 28 50" fill="none" xmlns="http://www.w3.org/2000/svg">
<path d="M25.269 48.334H17.7721V38.2946C20.568 38.0896 23.1845 36.8409 25.1027 34.7962C26.9826 32.8301 27.9498 30.1643 27.768 27.4502C27.7106 26.6302 27.574 25.5739 27.4284 24.4513C27.1624 22.7048 26.998 20.9445 26.935 19.1792C27.0692 17.5608 27.3397 15.9567 27.7432 14.3838C27.8054 14.1349 27.7497 13.8709 27.5919 13.6688C27.4341 13.4666 27.1916 13.3483 26.935 13.3483H13.1617L13.3541 13.2368L15.5196 11.9873C15.9173 11.7567 16.0532 11.2471 15.823 10.8493C14.1574 7.97203 10.9422 6.35851 7.63946 6.74328C7.7261 6.45369 7.77206 6.15352 7.77612 5.85131C7.77612 4.01124 6.28463 2.51933 4.44415 2.51933C4.07239 2.5234 3.70348 2.59051 3.35369 2.71741L1.80525 0.3917C1.64459 0.134643 1.35662 -0.0150356 1.0536 0.00123379C0.750582 0.0175032 0.48051 0.19728 0.348728 0.470607C0.216539 0.743933 0.24379 1.06729 0.419093 1.31499L1.96876 3.64233C1.26348 4.41757 0.968593 5.4824 1.17481 6.51022C1.38102 7.53804 2.06352 8.40642 3.01325 8.85017C0.115668 11.4862 -0.557479 15.7834 1.39567 19.1792C1.50589 19.3704 1.6877 19.5103 1.90124 19.5672C2.11477 19.6246 2.34214 19.5945 2.5333 19.4843L6.70438 17.076C6.8325 17.7467 6.91263 18.4259 6.94313 19.1084C6.93662 19.1316 6.93093 19.1552 6.92645 19.1792C6.93012 19.204 6.9354 19.2284 6.9415 19.2524C6.87521 20.9945 6.7121 22.7316 6.45261 24.4554C6.307 25.5739 6.17033 26.6302 6.11258 27.4543C5.93117 30.1684 6.89839 32.8341 8.77832 34.8003C10.6961 36.845 13.3126 38.0941 16.1085 38.299V48.334H8.60912C8.1491 48.334 7.77612 48.707 7.77612 49.167C7.77612 49.627 8.1491 50 8.60912 50H25.269C25.729 50 26.102 49.627 26.102 49.167C26.102 48.707 25.729 48.334 25.269 48.334ZM11.5832 12.3355L9.82892 13.3483H6.94313C6.68648 13.3483 6.44447 13.4666 6.28666 13.6688C6.12885 13.8709 6.07272 14.1349 6.13535 14.3838C6.13535 14.3944 6.23419 14.7853 6.35947 15.3506L4.6585 16.3329C4.03009 14.455 4.81062 12.3945 6.52541 11.4045C8.24021 10.4145 10.415 10.7683 11.7272 12.2513L11.5832 12.3355ZM4.44415 4.18532C5.36418 4.18532 6.11014 4.93127 6.11014 5.85131C6.11014 6.77135 5.36418 7.5173 4.44415 7.5173C3.52411 7.5173 2.77816 6.77135 2.77816 5.85131C2.77816 4.93127 3.52411 4.18532 4.44415 4.18532ZM2.4666 17.5966C1.16301 14.5009 2.36695 10.9184 5.27592 9.23901C8.18489 7.55919 11.8894 8.30718 13.9186 10.9843L13.1849 11.4081C11.3949 9.13082 8.2032 8.51543 5.69486 9.96341C3.18611 11.4118 2.12331 14.4839 3.20076 17.1724L2.4666 17.5966ZM10.2751 15.0142H25.8856C25.6347 16.1137 25.4451 17.2261 25.3174 18.3462H8.56072C8.49605 17.6658 8.37037 16.8987 8.23452 16.1922L10.2751 15.0142ZM7.77612 27.5681C7.83103 26.797 7.96526 25.7639 8.10924 24.6693C8.30692 23.1441 8.51679 21.4634 8.5835 20.0122H25.2991C25.3658 21.4634 25.5757 23.1441 25.773 24.6693C25.9157 25.7639 26.0495 26.797 26.1065 27.5681C26.2517 29.821 25.4447 32.0312 23.882 33.6606C22.0847 35.5816 19.5715 36.6721 16.9407 36.6721C14.3099 36.6721 11.7971 35.5816 9.99934 33.6606C8.43748 32.0312 7.63092 29.821 7.77612 27.5681Z" fill="url(#paint0_linear)"/>
<defs>
<linearGradient id="paint0_linear" x1="14.0345" y1="51.0329" x2="14.0345" y2="-1.58233" gradientUnits="userSpaceOnUse">
<stop stop-color="#E93E3A"/>
<stop offset="0.354" stop-color="#ED683C"/>
<stop offset="0.709" stop-color="#F3903F"/>
<stop offset="1" stop-color="#FDC70C"/>
</linearGradient>
</defs>
</svg>
