<svg width="256" height="25" viewBox="0 0 256 25" fill="none" xmlns="http://www.w3.org/2000/svg">
<path d="M17.6953 1.49609C17.7148 1.59375 17.7539 1.68164 17.8125 1.75977C17.8711 1.81836 17.9297 1.86719 17.9883 1.90625C18.0078 2.0625 18.0176 2.22852 18.0176 2.4043C18.0371 2.56055 18.0664 2.7168 18.1055 2.87305C18.1055 2.95117 18.1055 3.03906 18.1055 3.13672C18.1055 3.21484 18.1348 3.2832 18.1934 3.3418C18.1348 4.02539 18.0371 4.5918 17.9004 5.04102C17.7832 5.4707 17.6758 5.94922 17.5781 6.47656C17.5586 6.57422 17.5293 6.67187 17.4902 6.76953C17.4707 6.84766 17.4609 6.93555 17.4609 7.0332C17.4414 7.11133 17.4316 7.17969 17.4316 7.23828C17.4512 7.29688 17.4512 7.36523 17.4316 7.44336C17.3926 7.56055 17.334 7.6875 17.2559 7.82422C17.1777 7.96094 17.0996 8.10742 17.0215 8.26367C16.709 8.83008 16.3574 9.36719 15.9668 9.875C15.5957 10.3828 15.127 10.7734 14.5605 11.0469C14.3457 11.1445 14.1602 11.2422 14.0039 11.3398C13.8672 11.418 13.6914 11.4766 13.4766 11.5156C13.3398 11.5938 13.1738 11.6816 12.9785 11.7793C12.8027 11.8574 12.627 11.916 12.4512 11.9551C12.373 11.9941 12.2949 12.0137 12.2168 12.0137C12.1387 12.0137 12.0605 12.0234 11.9824 12.043C11.8848 12.082 11.7969 12.1211 11.7188 12.1602C11.6602 12.1797 11.6016 12.1992 11.543 12.2188C11.3867 12.2578 11.2695 12.2773 11.1914 12.2773C11.0547 12.2578 10.957 12.1797 10.8984 12.043C10.8398 11.8867 10.8105 11.7305 10.8105 11.5742C10.7324 11.4961 10.6445 11.4277 10.5469 11.3691C10.4492 11.3105 10.3809 11.2031 10.3418 11.0469C10.2832 10.832 10.2441 10.7148 10.2246 10.6953C10.2051 10.6758 10.1855 10.6465 10.166 10.6074C10.0684 10.334 10.0293 10.0312 10.0488 9.69922C10.0879 9.34766 10.166 9.06445 10.2832 8.84961C10.3223 8.75195 10.3809 8.68359 10.459 8.64453C10.5371 8.58594 10.5859 8.50781 10.6055 8.41016C10.7617 8.3125 10.8984 8.21484 11.0156 8.11719C11.1328 8 11.2695 7.89258 11.4258 7.79492C11.6211 7.46289 11.8457 7.20898 12.0996 7.0332C12.3535 6.85742 12.5977 6.67187 12.832 6.47656C12.9102 6.41797 12.9688 6.34961 13.0078 6.27148C13.0664 6.19336 13.1445 6.11523 13.2422 6.03711C13.3008 5.97852 13.3691 5.92969 13.4473 5.89062C13.5254 5.83203 13.5938 5.7832 13.6523 5.74414C13.6914 5.70508 13.7305 5.66602 13.7695 5.62695C13.8086 5.58789 13.8477 5.54883 13.8867 5.50977C13.9648 5.4707 14.043 5.45117 14.1211 5.45117C14.1992 5.45117 14.2773 5.43164 14.3555 5.39258C14.6289 5.35352 14.7656 5.37305 14.7656 5.45117C14.7656 5.50977 14.7656 5.57813 14.7656 5.65625C14.668 5.71484 14.5508 5.77344 14.4141 5.83203C14.2773 5.87109 14.1406 5.91016 14.0039 5.94922C13.9648 6.10547 13.877 6.22266 13.7402 6.30078C13.623 6.37891 13.5156 6.48633 13.418 6.62305C13.3398 6.7207 13.2715 6.81836 13.2129 6.91602C13.1738 6.99414 13.0859 7.05273 12.9492 7.0918C12.8516 7.32617 12.7246 7.53125 12.5684 7.70703C12.4316 7.86328 12.2949 8.0293 12.1582 8.20508C12.1582 8.41992 12.1094 8.60547 12.0117 8.76172C11.9336 8.89844 11.8457 9.04492 11.748 9.20117C11.709 9.2793 11.6699 9.35742 11.6309 9.43555C11.5918 9.51367 11.5723 9.57227 11.5723 9.61133C11.5918 9.65039 11.6113 9.70898 11.6309 9.78711C11.6699 9.8457 11.709 9.9043 11.748 9.96289C11.7871 10.0215 11.8262 10.0703 11.8652 10.1094C11.9238 10.1484 11.9629 10.1973 11.9824 10.2559C12.4512 9.96289 12.9102 9.66992 13.3594 9.37695C13.8281 9.08398 14.2285 8.73242 14.5605 8.32227C14.6582 8.14648 14.7461 7.98047 14.8242 7.82422C14.9219 7.64844 15.0195 7.46289 15.1172 7.26758C15.1563 7.07227 15.2148 6.88672 15.293 6.71094C15.3711 6.53516 15.459 6.35938 15.5566 6.18359C15.6543 5.98828 15.7422 5.79297 15.8203 5.59766C15.8984 5.40234 15.9473 5.19727 15.9668 4.98242C15.9863 4.82617 15.9863 4.66016 15.9668 4.48438C15.9668 4.28906 15.9961 4.14258 16.0547 4.04492C16.0156 3.94727 16.0156 3.82031 16.0547 3.66406C16.0938 3.48828 16.1035 3.32227 16.084 3.16602C15.9473 2.87305 15.8105 2.70703 15.6738 2.66797C15.5371 2.60938 15.3906 2.56055 15.2344 2.52148C15.0781 2.61914 14.9121 2.72656 14.7363 2.84375C14.5605 2.96094 14.3945 3.08789 14.2383 3.22461C14.1211 3.3418 13.9941 3.45898 13.8574 3.57617C13.7402 3.69336 13.6426 3.83008 13.5645 3.98633C13.3105 4.25977 13.1055 4.50391 12.9492 4.71875C12.793 4.91406 12.6367 5.11914 12.4805 5.33398C12.1484 5.54883 11.8457 5.7832 11.5723 6.03711C11.2988 6.29102 10.9961 6.52539 10.6641 6.74023C10.4102 6.93555 10.1562 7.14062 9.90234 7.35547C9.66797 7.55078 9.44336 7.75586 9.22852 7.9707C9.0332 8.18555 8.82812 8.39062 8.61328 8.58594C8.39844 8.76172 8.20312 8.95703 8.02734 9.17188C7.87109 9.38672 7.70508 9.61133 7.5293 9.8457C7.35352 10.0605 7.17773 10.2754 7.00195 10.4902C6.9043 10.5879 6.81641 10.6953 6.73828 10.8125C6.66016 10.9297 6.57227 11.0469 6.47461 11.1641C6.37695 11.2617 6.2793 11.3691 6.18164 11.4863C6.10352 11.6035 6.02539 11.7109 5.94727 11.8086C5.88867 11.9062 5.83984 12.0137 5.80078 12.1309C5.76172 12.2285 5.71289 12.3262 5.6543 12.4238C5.45898 12.6582 5.26367 12.9023 5.06836 13.1562C4.89258 13.3906 4.73633 13.6641 4.59961 13.9766C4.36523 14.2891 4.17969 14.6016 4.04297 14.9141C3.92578 15.207 3.78906 15.5 3.63281 15.793C3.59375 16.0664 3.51562 16.3105 3.39844 16.5254C3.30078 16.7402 3.23242 16.9844 3.19336 17.2578C3.17383 17.3945 3.13477 17.5312 3.07617 17.668C3.03711 17.7852 3.00781 17.9219 2.98828 18.0781C2.94922 18.2148 2.92969 18.3613 2.92969 18.5176C2.92969 18.6543 2.91016 18.7812 2.87109 18.8984C2.75391 19.1523 2.69531 19.3379 2.69531 19.4551C2.69531 19.5527 2.64648 19.6309 2.54883 19.6895C2.60742 19.8457 2.65625 19.9824 2.69531 20.0996C2.75391 20.2168 2.83203 20.334 2.92969 20.4512C2.96875 20.5293 3.02734 20.5977 3.10547 20.6562C3.18359 20.7148 3.24219 20.7832 3.28125 20.8613C3.35938 21.0566 3.41797 21.1738 3.45703 21.2129C3.51562 21.252 3.58398 21.3008 3.66211 21.3594C3.7207 21.3984 3.78906 21.4473 3.86719 21.5059C3.96484 21.5645 4.05273 21.6035 4.13086 21.623C4.22852 21.6621 4.32617 21.6816 4.42383 21.6816C4.54102 21.6621 4.64844 21.6621 4.74609 21.6816C4.84375 21.6816 4.93164 21.6914 5.00977 21.7109C5.08789 21.7109 5.17578 21.7012 5.27344 21.6816C5.42969 21.6426 5.61523 21.6035 5.83008 21.5645C6.04492 21.5059 6.24023 21.457 6.41602 21.418C6.68945 21.3398 6.95312 21.2617 7.20703 21.1836C7.48047 21.1055 7.73438 21.0176 7.96875 20.9199C8.22266 20.8223 8.42773 20.6855 8.58398 20.5098C8.74023 20.334 8.91602 20.1973 9.11133 20.0996C9.42383 19.8652 9.63867 19.6797 9.75586 19.543C9.89258 19.3867 10.0391 19.2598 10.1953 19.1621C10.332 18.9863 10.4102 18.8984 10.4297 18.8984C10.4492 18.8984 10.4688 18.8887 10.4883 18.8691C10.625 18.7129 10.752 18.5762 10.8691 18.459C11.0059 18.3223 11.1426 18.1758 11.2793 18.0195C11.4941 17.9219 11.6699 17.7949 11.8066 17.6387C11.9629 17.5801 12.0898 17.502 12.1875 17.4043C12.3047 17.3066 12.4219 17.209 12.5391 17.1113C12.6953 16.9941 12.8027 16.9062 12.8613 16.8477C12.9395 16.7695 13.0078 16.6914 13.0664 16.6133C13.1445 16.5352 13.2227 16.4473 13.3008 16.3496C13.3398 16.3105 13.3984 16.2715 13.4766 16.2324C13.5547 16.1738 13.6328 16.0957 13.7109 15.998C13.75 15.9395 13.7891 15.8613 13.8281 15.7637C13.8672 15.666 13.9355 15.6172 14.0332 15.6172C14.1504 15.5977 14.2773 15.6562 14.4141 15.793C14.5508 15.9102 14.6191 16.0371 14.6191 16.1738C14.4434 16.4473 14.3457 16.6133 14.3262 16.6719C14.1895 16.8672 14.043 17.0527 13.8867 17.2285C13.7305 17.4043 13.5742 17.5996 13.418 17.8145C13.2617 17.9902 13.1055 18.1758 12.9492 18.3711C12.793 18.5469 12.6465 18.7422 12.5098 18.957C12.373 19.1719 12.2168 19.3672 12.041 19.543C11.8848 19.6992 11.7188 19.875 11.543 20.0703C11.2891 20.3438 11.0352 20.5977 10.7812 20.832C10.5469 21.0664 10.3223 21.3496 10.1074 21.6816C10.0098 21.7793 9.91211 21.877 9.81445 21.9746C9.7168 22.0527 9.61914 22.1406 9.52148 22.2383C9.42383 22.2969 9.32617 22.3652 9.22852 22.4434C9.15039 22.502 9.0625 22.5605 8.96484 22.6191C8.57422 22.7559 8.17383 22.9316 7.76367 23.1465C7.37305 23.3809 6.93359 23.5664 6.44531 23.7031C6.23047 23.7617 6.00586 23.8301 5.77148 23.9082C5.55664 23.9863 5.3125 24.0156 5.03906 23.9961C5 23.9766 4.95117 23.9668 4.89258 23.9668C4.83398 23.9668 4.77539 23.957 4.7168 23.9375C4.59961 23.918 4.47266 23.8789 4.33594 23.8203C4.21875 23.7617 4.08203 23.7227 3.92578 23.7031C3.82812 23.7031 3.74023 23.7129 3.66211 23.7324C3.58398 23.7715 3.49609 23.791 3.39844 23.791C2.96875 23.5176 2.61719 23.2832 2.34375 23.0879C2.08984 22.9121 1.85547 22.6973 1.64062 22.4434C1.48438 22.1895 1.37695 22.0332 1.31836 21.9746C1.25977 21.8965 1.19141 21.8086 1.11328 21.7109C1.03516 21.5938 0.957031 21.4766 0.878906 21.3594C0.800781 21.2227 0.722656 21.0762 0.644531 20.9199C0.644531 20.8418 0.615234 20.7734 0.556641 20.7148C0.517578 20.6562 0.478516 20.5879 0.439453 20.5098C0.341797 20.1777 0.292969 19.8359 0.292969 19.4844C0.292969 19.1133 0.302734 18.752 0.322266 18.4004C0.341797 18.3027 0.341797 18.2148 0.322266 18.1367C0.302734 18.0391 0.292969 17.9414 0.292969 17.8438C0.292969 17.6875 0.322266 17.5215 0.380859 17.3457C0.439453 17.1699 0.488281 17.0039 0.527344 16.8477C0.644531 16.418 0.771484 16.0176 0.908203 15.6465C1.06445 15.2559 1.24023 14.8945 1.43555 14.5625C1.61133 14.3281 1.73828 14.1035 1.81641 13.8887C1.91406 13.6738 2.01172 13.4492 2.10938 13.2148C2.20703 13 2.30469 12.7949 2.40234 12.5996C2.5 12.3848 2.60742 12.1699 2.72461 11.9551C2.82227 11.7598 2.91992 11.5645 3.01758 11.3691C3.13477 11.1738 3.28125 10.998 3.45703 10.8418C3.51562 10.627 3.60352 10.4512 3.7207 10.3145C3.83789 10.1582 3.95508 10.002 4.07227 9.8457C4.26758 9.57227 4.46289 9.31836 4.6582 9.08398C4.87305 8.84961 5.05859 8.58594 5.21484 8.29297C5.37109 8.17578 5.50781 8.04883 5.625 7.91211C5.76172 7.77539 5.88867 7.63867 6.00586 7.50195C6.14258 7.3457 6.26953 7.20898 6.38672 7.0918C6.52344 6.95508 6.66016 6.80859 6.79688 6.65234C6.875 6.59375 6.94336 6.53516 7.00195 6.47656C7.08008 6.39844 7.14844 6.33008 7.20703 6.27148C7.34375 6.11523 7.48047 5.97852 7.61719 5.86133C7.75391 5.74414 7.90039 5.62695 8.05664 5.50977C8.23242 5.43164 8.39844 5.32422 8.55469 5.1875C8.73047 5.01172 8.89648 4.83594 9.05273 4.66016C9.22852 4.46484 9.4043 4.28906 9.58008 4.13281C9.85352 3.85937 10.1367 3.5957 10.4297 3.3418C10.7227 3.06836 11.0352 2.82422 11.3672 2.60938C11.5625 2.39453 11.7969 2.21875 12.0703 2.08203C12.3438 1.92578 12.6172 1.7793 12.8906 1.64258C13.0469 1.58398 13.1738 1.53516 13.2715 1.49609C13.3887 1.4375 13.5156 1.36914 13.6523 1.29102C13.8672 1.1543 14.0234 1.08594 14.1211 1.08594C14.2188 1.06641 14.2969 1.01758 14.3555 0.939453C14.5898 0.939453 14.7949 0.910156 14.9707 0.851562C15.1465 0.773438 15.3418 0.763672 15.5566 0.822266C15.6348 0.841797 15.7031 0.871094 15.7617 0.910156C15.8203 0.929687 15.8789 0.949219 15.9375 0.96875C16.3086 1.00781 16.5723 1.06641 16.7285 1.14453C16.8848 1.22266 17.0312 1.30078 17.168 1.37891C17.3242 1.4375 17.5 1.47656 17.6953 1.49609ZM45.3293 14.5332C45.427 14.5527 45.4855 14.5918 45.5051 14.6504C45.5441 14.709 45.6027 14.7383 45.6809 14.7383C45.7004 14.8359 45.6906 14.9141 45.6516 14.9727C45.632 15.0312 45.6027 15.0898 45.5637 15.1484C45.5246 15.1875 45.4855 15.2363 45.4465 15.2949C45.427 15.334 45.427 15.3926 45.4465 15.4707C45.2707 15.5879 45.0559 15.666 44.802 15.7051C44.548 15.7246 44.3527 15.8223 44.216 15.998C43.884 16.1543 43.5227 16.2617 43.132 16.3203C42.7609 16.3594 42.3703 16.418 41.9602 16.4961C41.7648 16.6328 41.6281 16.7109 41.55 16.7305C41.4914 16.75 41.423 16.7793 41.3449 16.8184C41.1496 16.7402 40.9445 16.7012 40.7297 16.7012C40.5148 16.7012 40.3 16.6719 40.0852 16.6133C39.968 16.6523 39.8508 16.6719 39.7336 16.6719C39.6359 16.6719 39.5285 16.6914 39.4113 16.7305C39.3332 16.8867 39.2941 17.0625 39.2941 17.2578C39.2941 17.4531 39.2648 17.6289 39.2062 17.7852L39.0305 18.1367C39.0109 18.2344 38.9914 18.332 38.9719 18.4297C38.9719 18.5078 38.9523 18.5957 38.9133 18.6934C38.8742 18.752 38.8254 18.8203 38.7668 18.8984C38.7277 18.9766 38.7082 19.0645 38.7082 19.1621C38.5715 19.3184 38.4738 19.5039 38.4152 19.7188C38.3566 19.9141 38.2492 20.0801 38.093 20.2168C38.0344 20.4121 37.9367 20.5684 37.8 20.6855C37.6828 20.8027 37.5656 20.9395 37.4484 21.0957C37.2336 21.3887 37.0383 21.6426 36.8625 21.8574C36.7062 22.0723 36.4914 22.2578 36.218 22.4141C36.1203 22.5703 36.0031 22.6777 35.8664 22.7363C35.7492 22.8535 35.6711 22.9512 35.632 23.0293C35.4562 23.127 35.2609 23.2441 35.0461 23.3809C34.8312 23.5176 34.6066 23.6152 34.3723 23.6738C34.0402 23.752 33.718 23.7422 33.4055 23.6445C33.093 23.5469 32.8 23.4102 32.5266 23.2344C32.3508 23.2539 32.2043 23.2148 32.0871 23.1172C31.9895 23.0391 31.8625 22.9805 31.7062 22.9414C31.4914 22.7461 31.257 22.5703 31.0031 22.4141C30.7492 22.2578 30.5637 22.043 30.4465 21.7695C30.4074 21.5547 30.3684 21.3398 30.3293 21.125C30.2707 20.9102 30.2219 20.7148 30.1828 20.5391C30.1437 20.3633 30.1437 20.1777 30.1828 19.9824C30.2023 19.7871 30.2023 19.5918 30.1828 19.3965C30.1828 19.1816 30.1828 19.0059 30.1828 18.8691C30.1633 18.7129 30.2023 18.5273 30.3 18.3125C30.4172 18.0586 30.4953 17.8535 30.5344 17.6973C30.5734 17.5215 30.6125 17.375 30.6516 17.2578C30.7102 17.1602 30.7687 17.0527 30.8273 16.9355C30.8859 16.8184 30.9543 16.7109 31.0324 16.6133C31.1496 16.4375 31.2863 16.2617 31.4426 16.0859C31.5988 15.9102 31.7551 15.7441 31.9113 15.5879C32.0285 15.4316 32.1359 15.3047 32.2336 15.207C32.3898 15.0508 32.5559 14.9043 32.7316 14.7676C32.9074 14.6309 33.0832 14.4746 33.259 14.2988C33.298 14.2402 33.3469 14.1914 33.4055 14.1523C33.4641 14.1133 33.5227 14.0742 33.5812 14.0352C33.7766 13.918 33.9523 13.8203 34.1086 13.7422C34.2844 13.6641 34.4797 13.5762 34.6945 13.4785C34.8508 13.4004 34.9973 13.3516 35.134 13.332C35.2902 13.293 35.466 13.2539 35.6613 13.2148C35.798 13.2148 35.9152 13.2148 36.0129 13.2148C36.1105 13.2148 36.2082 13.1953 36.3059 13.1562C36.2473 13 36.3156 12.8926 36.5109 12.834C36.7062 12.7754 36.8527 12.7559 36.9504 12.7754C37.1457 12.7754 37.302 12.8242 37.4191 12.9219C37.5363 13 37.6437 13.0977 37.7414 13.2148C37.9562 13.3711 38.1711 13.5762 38.3859 13.8301C38.425 13.8691 38.4738 13.8984 38.5324 13.918C38.591 13.9375 38.6398 13.9668 38.6789 14.0059C38.757 14.1035 38.8059 14.2109 38.8254 14.3281C38.8645 14.4453 38.9328 14.5527 39.0305 14.6504C39.0891 14.6895 39.1477 14.7383 39.2062 14.7969C39.2648 14.8555 39.3039 14.9336 39.3234 15.0312C39.4211 15.0703 39.509 15.1094 39.5871 15.1484C39.6848 15.168 39.7824 15.1875 39.8801 15.207C39.9777 15.2461 40.0754 15.2559 40.173 15.2363C40.2902 15.2168 40.4172 15.2168 40.5539 15.2363C40.6516 15.2559 40.7395 15.2852 40.8176 15.3242C40.8957 15.3438 40.9836 15.3535 41.0812 15.3535C41.2375 15.334 41.3937 15.2949 41.55 15.2363C41.7258 15.1777 41.9211 15.168 42.1359 15.207C42.4289 15.2852 42.7316 15.2559 43.0441 15.1191C43.3762 14.9824 43.7082 14.8945 44.0402 14.8555C44.1184 14.8555 44.1867 14.8555 44.2453 14.8555C44.3039 14.8359 44.3723 14.8262 44.4504 14.8262C44.548 14.748 44.675 14.6895 44.8312 14.6504C44.9875 14.6113 45.1535 14.5723 45.3293 14.5332ZM36.9504 15.4121C36.7551 15.2363 36.6379 15.1289 36.5988 15.0898C36.5793 15.0312 36.55 14.9922 36.5109 14.9727C36.4328 14.8945 36.3352 14.8457 36.218 14.8262C36.1008 14.8066 35.9934 14.7871 35.8957 14.7676C35.5832 14.709 35.3195 14.748 35.1047 14.8848C34.9094 15.002 34.7141 15.1191 34.5187 15.2363C34.2062 15.4316 33.9328 15.6758 33.6984 15.9688C33.6398 16.0664 33.5715 16.1738 33.4934 16.291C33.4348 16.4082 33.3859 16.5352 33.3469 16.6719C33.2687 16.8281 33.2004 16.9746 33.1418 17.1113C33.0832 17.2285 33.0344 17.375 32.9953 17.5508C32.8977 17.7461 32.8391 17.9121 32.8195 18.0488C32.8 18.166 32.7805 18.2734 32.7609 18.3711C32.7414 18.5664 32.7023 18.7715 32.6437 18.9863C32.6047 19.2012 32.5852 19.3867 32.5852 19.543C32.6047 19.6016 32.634 19.6797 32.673 19.7773C32.7121 19.875 32.7512 19.9434 32.7902 19.9824C32.8293 20.0801 32.8684 20.1875 32.9074 20.3047C32.966 20.4219 33.0148 20.5098 33.0539 20.5684C33.1516 20.7051 33.2785 20.793 33.4348 20.832C33.591 20.8711 33.7668 20.9199 33.9621 20.9785C34.177 21.0957 34.3234 21.1445 34.4016 21.125C34.4797 21.1055 34.5383 21.0957 34.5773 21.0957C34.8312 21.0566 35.0559 20.9492 35.2512 20.7734C35.4465 20.5977 35.6418 20.4609 35.8371 20.3633C35.9934 20.1289 36.1594 19.8848 36.3352 19.6309C36.5305 19.3574 36.7062 19.084 36.8625 18.8105C36.9211 18.7324 36.9699 18.6445 37.009 18.5469C37.048 18.4492 37.0871 18.3613 37.1262 18.2832C37.2629 18.127 37.3215 18.0391 37.302 18.0195C37.302 18 37.3117 17.9707 37.3312 17.9316C37.468 17.6387 37.5266 17.4141 37.507 17.2578C37.4875 17.1016 37.4875 16.9453 37.507 16.7891C37.4094 16.5742 37.3215 16.3398 37.2434 16.0859C37.1848 15.832 37.0871 15.6074 36.9504 15.4121ZM69.4184 16.2617C69.6137 16.4961 69.7016 16.6621 69.682 16.7598C69.682 16.8574 69.682 16.9648 69.682 17.082C69.5844 17.1992 69.5062 17.3262 69.4477 17.4629C69.3891 17.5801 69.3012 17.6875 69.184 17.7852C69.0863 17.8633 68.9789 17.9219 68.8617 17.9609C68.7641 17.9805 68.6762 18.0391 68.598 18.1367C68.4809 18.1758 68.3832 18.2246 68.3051 18.2832C68.227 18.3418 68.1098 18.3613 67.9535 18.3418C67.4848 18.8105 67.0648 19.1914 66.6937 19.4844C66.3422 19.7773 65.9711 20.0605 65.5805 20.334C65.2875 20.5879 64.975 20.8223 64.643 21.0371C64.3305 21.252 64.0082 21.4668 63.6762 21.6816C63.5785 21.7793 63.4906 21.877 63.4125 21.9746C63.3344 22.0527 63.2367 22.1211 63.1195 22.1797C62.8852 22.4141 62.641 22.6289 62.3871 22.8242C62.1527 23 61.9281 23.1855 61.7133 23.3809C61.4984 23.5371 61.2641 23.6445 61.0102 23.7031C60.7758 23.7617 60.5512 23.8398 60.3363 23.9375C59.9652 24.0938 59.682 24.123 59.4867 24.0254C59.2719 24.0645 59.0863 24.0938 58.9301 24.1133C58.7934 24.1523 58.6176 24.1426 58.4027 24.084C58.3441 24.0645 58.2855 24.0352 58.227 23.9961C58.1684 23.957 58.1 23.918 58.0219 23.8789C57.8266 23.8008 57.6703 23.7129 57.5531 23.6152C57.4555 23.5371 57.3676 23.459 57.2895 23.3809C57.2309 23.3223 57.1625 23.2344 57.0844 23.1172C57.0062 23.0195 56.9477 22.9316 56.9086 22.8535C56.8109 22.6973 56.7523 22.5117 56.7328 22.2969C56.6937 22.0625 56.6449 21.8379 56.5863 21.623C56.5473 21.4082 56.4887 21.1934 56.4105 20.9785C56.3324 20.7637 56.3031 20.5391 56.3227 20.3047C56.3422 20.1484 56.3812 20.002 56.4398 19.8652C56.4789 19.709 56.518 19.5527 56.557 19.3965C56.6742 19.123 56.7719 18.8691 56.85 18.6348C56.9281 18.4004 57.016 18.1758 57.1137 17.9609C57.1723 17.8633 57.2309 17.7852 57.2895 17.7266C57.3676 17.668 57.4359 17.5898 57.4945 17.4922C57.5336 17.4531 57.5531 17.3945 57.5531 17.3164C57.5727 17.2383 57.602 17.1699 57.641 17.1113C57.7973 16.9355 57.9633 16.7598 58.1391 16.584C58.3148 16.3887 58.4711 16.1836 58.6078 15.9688C58.7055 15.832 58.8031 15.7148 58.9008 15.6172C59.018 15.5 59.1254 15.373 59.223 15.2363C59.3402 15.0801 59.4184 14.9922 59.4574 14.9727C59.516 14.9336 59.5648 14.8848 59.6039 14.8262C59.7211 14.709 59.8285 14.5918 59.9262 14.4746C60.0238 14.3379 60.1215 14.2012 60.2191 14.0645C60.3559 13.9277 60.4926 13.7812 60.6293 13.625C60.7855 13.4688 60.9418 13.3418 61.098 13.2441C61.2738 13.1465 61.4496 13.0586 61.6254 12.9805C61.8207 12.9023 62.0258 12.8145 62.2406 12.7168C62.3383 12.6777 62.4262 12.6289 62.5043 12.5703C62.602 12.5117 62.6996 12.4629 62.7973 12.4238C62.9145 12.3848 63.0219 12.3555 63.1195 12.3359C63.2172 12.3164 63.3051 12.2676 63.3832 12.1895C63.5004 12.209 63.6078 12.1895 63.7055 12.1309C63.8031 12.0723 63.9008 12.0234 63.9984 11.9844C64.0961 11.9648 64.184 11.9648 64.2621 11.9844C64.3598 12.0039 64.4379 11.9844 64.4965 11.9258C64.5551 11.9648 64.6137 11.9844 64.6723 11.9844C64.7504 11.9844 64.809 12.0039 64.848 12.043C64.9262 12.0625 64.9945 12.1113 65.0531 12.1895C65.1312 12.2676 65.1801 12.3555 65.1996 12.4531C65.2387 12.7461 65.1605 13.0488 64.9652 13.3613C64.7895 13.6738 64.6332 13.9082 64.4965 14.0645C64.3988 14.2207 64.2914 14.3574 64.1742 14.4746C64.057 14.5723 63.9203 14.6699 63.7641 14.7676C63.5297 14.7676 63.2855 14.7871 63.0316 14.8262C62.7973 14.8457 62.5824 14.8359 62.3871 14.7969C62.348 14.875 62.2895 14.9336 62.2113 14.9727C62.1527 14.9922 62.143 15.041 62.182 15.1191C61.518 15.6855 60.932 16.291 60.4242 16.9355C59.9164 17.5605 59.516 18.3027 59.223 19.1621C59.1254 19.4941 59.0277 19.7383 58.9301 19.8945C58.8324 20.0312 58.7836 20.1777 58.7836 20.334C58.9008 20.7441 59.0961 21.0957 59.3695 21.3887C59.643 21.6621 59.9164 21.8184 60.1898 21.8574C60.5023 21.8965 60.7758 21.8379 61.0102 21.6816C61.2641 21.5254 61.4984 21.3887 61.7133 21.2715C61.9867 21.0762 62.2504 20.9004 62.5043 20.7441C62.7777 20.5879 63.0609 20.4219 63.3539 20.2461C63.432 20.207 63.5102 20.168 63.5883 20.1289C63.6664 20.0703 63.7445 20.0117 63.8227 19.9531C64.0766 19.7773 64.3012 19.6113 64.4965 19.4551C64.7113 19.2793 64.9262 19.1133 65.141 18.957C65.2387 18.9375 65.307 18.9082 65.3461 18.8691C65.4047 18.8105 65.4828 18.7812 65.5805 18.7812C65.932 18.4688 66.3129 18.1953 66.723 17.9609C67.1332 17.707 67.5629 17.4531 68.0121 17.1992C68.1488 17.0625 68.2855 16.9453 68.4223 16.8477C68.5785 16.7305 68.725 16.6035 68.8617 16.4668C68.9984 16.4668 69.0961 16.4375 69.1547 16.3789C69.2133 16.3008 69.3012 16.2617 69.4184 16.2617ZM91.5152 6.82812C91.7691 6.86719 91.984 6.89648 92.1598 6.91602C92.3355 6.93555 92.4918 6.95508 92.6285 6.97461C92.7848 6.97461 92.941 6.97461 93.0973 6.97461C93.2535 6.95508 93.4488 6.92578 93.6832 6.88672C94.1129 6.82812 94.4938 6.7793 94.8258 6.74023C95.1773 6.68164 95.5582 6.63281 95.9684 6.59375C96.0855 6.57422 96.2027 6.57422 96.3199 6.59375C96.4566 6.61328 96.5836 6.62305 96.7008 6.62305C96.9547 6.62305 97.1988 6.61328 97.4332 6.59375C97.6871 6.57422 97.9215 6.55469 98.1363 6.53516C98.2145 6.51563 98.2828 6.49609 98.3414 6.47656C98.4 6.45703 98.4586 6.45703 98.5172 6.47656C98.693 6.47656 98.8688 6.47656 99.0445 6.47656C99.2203 6.45703 99.3766 6.51563 99.5133 6.65234C99.5719 6.84766 99.5914 6.95508 99.5719 6.97461C99.5523 6.99414 99.5328 7.02344 99.5133 7.0625C99.4938 7.31641 99.4547 7.44336 99.3961 7.44336C99.357 7.44336 99.3375 7.46289 99.3375 7.50195C99.1813 7.54102 99.0445 7.58008 98.9273 7.61914C98.8297 7.63867 98.7516 7.69727 98.693 7.79492C98.3609 7.87305 98.0484 7.89258 97.7555 7.85352C97.482 7.79492 97.1988 7.83398 96.9059 7.9707C96.7691 8.0293 96.6227 8.10742 96.4664 8.20508C96.3297 8.2832 96.1539 8.2832 95.9391 8.20508C95.7438 8.20508 95.5191 8.21484 95.2652 8.23438C95.0113 8.25391 94.7672 8.27344 94.5328 8.29297C94.0836 8.33203 93.693 8.37109 93.3609 8.41016C93.0484 8.42969 92.7457 8.44922 92.4527 8.46875C92.1598 8.46875 91.857 8.47852 91.5445 8.49805C91.2516 8.51758 90.8902 8.52734 90.4605 8.52734C90.3043 8.66406 90.1969 8.83008 90.1383 9.02539C90.0992 9.2207 90.0016 9.37695 89.8453 9.49414C89.6891 9.86523 89.5621 10.1191 89.4645 10.2559C89.3668 10.373 89.2984 10.5195 89.2594 10.6953C88.9859 11.0469 88.732 11.418 88.4977 11.8086C88.2828 12.1797 88.0289 12.5312 87.7359 12.8633C87.6969 13.0781 87.6188 13.2734 87.5016 13.4492C87.4039 13.6055 87.3355 13.8203 87.2965 14.0938C87.0816 14.3867 86.9254 14.709 86.8277 15.0605C86.7301 15.4121 86.6031 15.7832 86.4469 16.1738C86.4078 16.3301 86.359 16.4863 86.3004 16.6426C86.2613 16.7793 86.2125 16.9258 86.1539 17.082C86.0758 17.2773 85.9781 17.4629 85.8609 17.6387C85.7633 17.7949 85.6656 17.9707 85.568 18.166C85.5289 18.2051 85.5094 18.2637 85.5094 18.3418C85.5094 18.4004 85.4996 18.4492 85.4801 18.4883C85.4215 18.625 85.3629 18.752 85.3043 18.8691C85.2457 18.9668 85.1969 19.0645 85.1578 19.1621C85.1188 19.2598 85.0895 19.3672 85.0699 19.4844C85.0699 19.582 85.0504 19.6797 85.0113 19.7773C84.9918 19.8359 84.9723 19.8945 84.9527 19.9531C84.9332 19.9922 84.9137 20.041 84.8941 20.0996C84.8355 20.373 84.8355 20.5586 84.8941 20.6562C84.9527 20.7539 85.0016 20.8516 85.0406 20.9492C85.0797 21.0664 85.1188 21.1738 85.1578 21.2715C85.1969 21.3496 85.2262 21.4375 85.2457 21.5352C85.3434 21.5742 85.4313 21.6133 85.5094 21.6523C85.607 21.6914 85.7047 21.7109 85.8023 21.7109C85.9195 21.7305 86.0465 21.6816 86.1832 21.5645C86.3199 21.4277 86.4371 21.3496 86.5348 21.3301C86.6715 21.291 86.7984 21.2715 86.9156 21.2715C87.0523 21.2715 87.1695 21.2422 87.2672 21.1836C87.3844 21.0859 87.482 20.9883 87.5602 20.8906C87.6383 20.793 87.7457 20.7246 87.8824 20.6855C88.1949 20.6074 88.3609 20.5488 88.3805 20.5098C88.4 20.4512 88.4684 20.373 88.5855 20.2754C88.7223 20.1777 88.8395 20.0898 88.9371 20.0117C89.0543 19.9141 89.191 19.8164 89.3473 19.7188C89.5426 19.6211 89.65 19.5625 89.6695 19.543C89.7086 19.5234 89.7965 19.4551 89.9332 19.3379C90.1285 19.2402 90.2945 19.1328 90.4313 19.0156C90.568 18.8984 90.7242 18.791 90.9 18.6934C91.0953 18.6152 91.2125 18.5664 91.2516 18.5469C91.2906 18.5078 91.3102 18.4785 91.3102 18.459C91.3297 18.4395 91.3492 18.4102 91.3688 18.3711C91.4078 18.332 91.5055 18.2637 91.6617 18.166C91.7398 18.0098 91.8277 17.8828 91.9254 17.7852C92.023 17.6875 92.1402 17.5605 92.277 17.4043C92.3941 17.2676 92.5113 17.1504 92.6285 17.0527C92.7652 16.9551 92.8824 16.8574 92.9801 16.7598C93.0387 16.7207 93.0875 16.6816 93.1266 16.6426C93.1656 16.584 93.234 16.5449 93.3316 16.5254C93.4488 16.4277 93.5367 16.3496 93.5953 16.291C93.6734 16.2129 93.7906 16.1055 93.9469 15.9688C93.9859 15.9297 94.0348 15.8809 94.0934 15.8223C94.152 15.7637 94.2008 15.7246 94.2398 15.7051C94.318 15.7051 94.3766 15.7344 94.4156 15.793C94.4742 15.8516 94.5426 15.8809 94.6207 15.8809C94.6012 16.1348 94.5914 16.3008 94.5914 16.3789C94.5914 16.4375 94.5719 16.5059 94.5328 16.584C94.4156 16.7598 94.2789 16.8574 94.1227 16.877C93.9859 16.8965 93.8785 17.0039 93.8004 17.1992C93.7418 17.1602 93.6637 17.1504 93.566 17.1699C93.4879 17.1895 93.4293 17.2188 93.3902 17.2578C93.4293 17.3359 93.4488 17.4043 93.4488 17.4629C93.4488 17.5215 93.4586 17.5898 93.4781 17.668C93.1266 18.0195 92.8922 18.3027 92.775 18.5176C92.5406 18.7715 92.4137 18.918 92.3941 18.957C92.3746 18.9766 92.3648 18.9863 92.3648 18.9863C92.3648 18.9863 92.3551 18.9961 92.3355 19.0156C92.316 19.0352 92.2477 19.1035 92.1305 19.2207C91.857 19.4355 91.652 19.6406 91.5152 19.8359C91.3785 20.0312 91.1734 20.207 90.9 20.3633C90.6852 20.5195 90.5387 20.6367 90.4605 20.7148C90.3824 20.793 90.2652 20.9004 90.109 21.0371C90.0309 21.1152 89.9527 21.2031 89.8746 21.3008C89.816 21.3789 89.7379 21.457 89.6402 21.5352C89.5035 21.6328 89.3668 21.7207 89.2301 21.7988C89.1129 21.877 89.0055 21.9746 88.9078 22.0918C88.6148 22.2285 88.4 22.3848 88.2633 22.5605C88.1461 22.7363 87.9605 22.9023 87.7066 23.0586C87.5309 23.1758 87.2867 23.3223 86.9742 23.498C86.6813 23.6738 86.4273 23.8008 86.2125 23.8789C86.1539 23.8984 86.0953 23.918 86.0367 23.9375C85.9977 23.957 85.9488 23.9766 85.8902 23.9961C85.734 23.8984 85.5777 23.8008 85.4215 23.7031C85.2848 23.6055 85.1676 23.4688 85.0699 23.293C84.8941 23.1562 84.7477 23.0586 84.6305 23C84.5328 22.9414 84.4352 22.8633 84.3375 22.7656C84.1422 22.4336 83.9176 22.1016 83.6637 21.7695C83.4293 21.4375 83.2438 21.0664 83.107 20.6562C83.068 20.5781 83.0387 20.5 83.0191 20.4219C83.0191 20.3242 83.0094 20.2266 82.9898 20.1289C82.9508 19.9727 82.9117 19.8359 82.8727 19.7188C82.8336 19.6016 82.8238 19.4551 82.8434 19.2793C82.8434 19.1621 82.8629 19.0352 82.902 18.8984C82.941 18.7617 82.9801 18.6152 83.0191 18.459C83.0973 18.2051 83.1852 17.9609 83.2828 17.7266C83.4 17.4922 83.4879 17.2383 83.5465 16.9648C83.6051 16.75 83.6637 16.5547 83.7223 16.3789C83.7809 16.2031 83.8492 16.0078 83.9273 15.793C83.9664 15.6953 83.9859 15.6074 83.9859 15.5293C84.0055 15.4316 84.0641 15.3633 84.1617 15.3242C84.2398 14.9336 84.3668 14.5625 84.5426 14.2109C84.7184 13.8398 84.8941 13.4883 85.0699 13.1562C85.2848 12.7461 85.4801 12.3262 85.6559 11.8965C85.8512 11.4668 86.0563 11.0469 86.2711 10.6367C86.2906 10.4023 86.3688 10.207 86.5055 10.0508C86.525 9.83594 86.6031 9.63086 86.7398 9.43555C86.8766 9.2207 86.9742 9.00586 87.0328 8.79102C86.818 8.73242 86.5738 8.73242 86.3004 8.79102C86.0465 8.83008 85.8219 8.86914 85.6266 8.9082C85.275 8.92773 84.9039 8.92773 84.5133 8.9082C84.3766 8.88867 84.2398 8.86914 84.1031 8.84961C83.9859 8.81055 83.8688 8.79102 83.7516 8.79102C83.5758 8.81055 83.4391 8.80078 83.3414 8.76172C83.2633 8.70312 83.1754 8.69336 83.0777 8.73242C82.8238 8.51758 82.6383 8.37109 82.5211 8.29297C82.4039 8.21484 82.2965 8.14648 82.1988 8.08789C82.0816 8.00977 81.984 7.93164 81.9059 7.85352C81.8082 7.75586 81.7301 7.61914 81.6715 7.44336C81.6715 7.38477 81.7008 7.33594 81.7594 7.29688C81.818 7.25781 81.8668 7.21875 81.9059 7.17969C82.0621 7.14062 82.2379 7.13086 82.4332 7.15039C82.6285 7.15039 82.7848 7.11133 82.902 7.0332C83.2145 7.07227 83.4977 7.05273 83.7516 6.97461C84.025 6.89648 84.3082 6.86719 84.6012 6.88672C84.6598 6.88672 84.7184 6.89648 84.777 6.91602C84.8355 6.93555 84.8941 6.94531 84.9527 6.94531C85.0504 6.96484 85.1285 6.96484 85.1871 6.94531C85.2652 6.92578 85.3531 6.90625 85.4508 6.88672C85.568 6.86719 85.6949 6.86719 85.8316 6.88672C85.9684 6.90625 86.1051 6.90625 86.2418 6.88672C86.4957 6.86719 86.7984 6.89648 87.15 6.97461C87.5211 7.0332 87.8434 7.01367 88.1168 6.91602C88.2145 6.64258 88.3219 6.36914 88.4391 6.0957C88.5758 5.80273 88.6832 5.51953 88.7613 5.24609C88.8395 5.12891 88.9176 5.00195 88.9957 4.86523C89.0738 4.70898 89.1324 4.5625 89.1715 4.42578C89.2887 4.23047 89.3766 4.07422 89.4352 3.95703C89.5133 3.83984 89.6012 3.72266 89.6988 3.60547C89.8355 3.33203 89.9332 3.06836 89.9918 2.81445C90.0699 2.54102 90.1676 2.24805 90.2848 1.93555C90.5387 1.66211 90.7926 1.33008 91.0465 0.939453C91.1832 0.958984 91.2906 0.919922 91.3688 0.822266C91.4664 0.724609 91.6031 0.734375 91.7789 0.851562C91.7789 0.910156 91.7984 0.96875 91.8375 1.02734C91.8961 1.06641 91.9059 1.13477 91.8668 1.23242C91.9645 1.33008 92.0426 1.41797 92.1012 1.49609C92.1598 1.57422 92.2086 1.66211 92.2477 1.75977C92.2867 1.91602 92.2672 2.10156 92.1891 2.31641C92.1305 2.51172 92.15 2.69727 92.2477 2.87305C92.2867 2.9707 92.2965 3.06836 92.277 3.16602C92.2574 3.24414 92.2672 3.32227 92.3063 3.40039C92.3453 3.49805 92.3941 3.5957 92.4527 3.69336C92.5309 3.79102 92.5699 3.91797 92.5699 4.07422C92.5699 4.13281 92.5504 4.21094 92.5113 4.30859C92.4918 4.38672 92.4625 4.47461 92.4234 4.57227C92.3453 4.86523 92.2867 5.07031 92.2477 5.1875C92.2086 5.30469 92.1695 5.43164 92.1305 5.56836C91.9938 5.72461 91.9254 5.83203 91.9254 5.89062C91.9254 5.92969 91.9156 5.96875 91.8961 6.00781C91.8375 6.125 91.7691 6.27148 91.691 6.44727C91.6324 6.60352 91.5738 6.73047 91.5152 6.82812ZM115.985 15.0898C116.005 15.1484 115.985 15.2656 115.927 15.4414C115.829 15.5586 115.77 15.6855 115.751 15.8223C115.712 15.9004 115.673 15.9688 115.634 16.0273C115.614 16.0859 115.595 16.1641 115.575 16.2617C115.536 16.3789 115.516 16.5156 115.516 16.6719C115.536 16.8281 115.536 16.9746 115.516 17.1113C115.477 17.3262 115.448 17.541 115.429 17.7559C115.409 17.9512 115.389 18.1562 115.37 18.3711C115.37 18.5859 115.35 18.8301 115.311 19.1035C115.272 19.377 115.233 19.6211 115.194 19.8359C115.272 19.9727 115.321 20.1191 115.341 20.2754C115.36 20.4316 115.429 20.5586 115.546 20.6562C115.936 20.5977 116.249 20.5098 116.483 20.3926C116.718 20.2559 116.942 20.0703 117.157 19.8359C117.333 19.7578 117.45 19.6895 117.509 19.6309C117.587 19.5723 117.704 19.4941 117.86 19.3965C117.899 19.3574 117.938 19.3184 117.977 19.2793C118.016 19.2402 118.055 19.2012 118.095 19.1621C118.309 19.0449 118.436 18.9668 118.475 18.9277C118.534 18.8887 118.602 18.8496 118.68 18.8105C119.012 18.5957 119.266 18.3711 119.442 18.1367C119.618 18 119.735 17.8828 119.794 17.7852C119.872 17.668 120.028 17.5605 120.262 17.4629C120.399 17.3066 120.536 17.1797 120.673 17.082C120.829 16.9648 120.975 16.8281 121.112 16.6719C121.21 16.6719 121.288 16.6914 121.346 16.7305C121.405 16.7695 121.473 16.8086 121.552 16.8477C121.61 17.0039 121.62 17.1699 121.581 17.3457C121.542 17.502 121.473 17.6484 121.376 17.7852C121.278 17.9219 121.229 18 121.229 18.0195C121.229 18.0391 121.22 18.0586 121.2 18.0781C121.141 18.1562 121.063 18.2344 120.966 18.3125C120.887 18.3711 120.819 18.4395 120.761 18.5176C120.663 18.6934 120.585 18.7812 120.526 18.7812C120.468 18.7812 120.419 18.8008 120.38 18.8398C120.204 18.9375 120.077 19.0156 119.999 19.0742C119.94 19.1328 119.833 19.2109 119.677 19.3086C119.462 19.4258 119.335 19.5039 119.296 19.543C119.257 19.582 119.218 19.6113 119.179 19.6309C118.925 19.9043 118.69 20.1289 118.475 20.3047C118.28 20.4609 118.065 20.6758 117.831 20.9492C117.753 21.0078 117.675 21.0664 117.596 21.125C117.518 21.1836 117.45 21.2617 117.391 21.3594C117.216 21.4766 117.069 21.5938 116.952 21.7109C116.854 21.8281 116.737 21.9648 116.6 22.1211C116.483 22.1797 116.356 22.2676 116.22 22.3848C116.083 22.4824 115.936 22.5703 115.78 22.6484C115.702 22.6875 115.614 22.7363 115.516 22.7949C115.438 22.834 115.35 22.8535 115.253 22.8535C115.018 22.8926 114.804 22.873 114.608 22.7949C114.413 22.7168 114.227 22.6582 114.052 22.6191C113.973 22.502 113.876 22.4043 113.759 22.3262C113.583 22.1113 113.456 21.8574 113.378 21.5645C113.3 21.2715 113.221 20.959 113.143 20.627C112.987 20.7246 112.841 20.8516 112.704 21.0078C112.567 21.1641 112.391 21.291 112.177 21.3887C111.786 21.7598 111.366 22.1211 110.917 22.4727C110.487 22.8047 110.048 23.1562 109.598 23.5273C109.54 23.5859 109.481 23.6348 109.423 23.6738C109.364 23.7129 109.315 23.7227 109.276 23.7031C109.179 23.8203 109.042 23.8887 108.866 23.9082C108.71 23.9473 108.534 23.9473 108.339 23.9082C108.143 23.8105 107.968 23.7422 107.811 23.7031C107.655 23.6641 107.499 23.6055 107.343 23.5273C107.011 23.4688 106.737 23.3223 106.522 23.0879C106.288 22.8535 106.093 22.5801 105.936 22.2676C105.878 22.1113 105.839 21.9648 105.819 21.8281C105.78 21.6914 105.741 21.5352 105.702 21.3594C105.682 21.2031 105.653 21.0762 105.614 20.9785C105.575 20.8613 105.575 20.7539 105.614 20.6562C105.575 20.5977 105.565 20.5391 105.585 20.4805C105.604 20.4023 105.614 20.3242 105.614 20.2461C105.595 19.9727 105.624 19.6797 105.702 19.3672C105.761 19.0547 105.848 18.7715 105.966 18.5176C106.005 18.4395 106.083 18.3418 106.2 18.2246C106.239 18.166 106.268 18.1074 106.288 18.0488C106.307 17.9902 106.337 17.9414 106.376 17.9023C106.415 17.8438 106.473 17.7852 106.552 17.7266C106.63 17.668 106.698 17.6094 106.757 17.5508C106.854 17.4141 106.962 17.2969 107.079 17.1992C107.216 17.082 107.343 16.9648 107.46 16.8477C107.518 16.7891 107.567 16.7207 107.606 16.6426C107.665 16.5645 107.743 16.5059 107.841 16.4668C107.919 16.3301 108.007 16.2227 108.104 16.1445C108.202 16.0469 108.309 15.9492 108.427 15.8516C108.759 15.4414 109.169 15.0996 109.657 14.8262C110.145 14.5527 110.585 14.2402 110.975 13.8887C111.112 13.8301 111.229 13.7617 111.327 13.6836C111.425 13.6055 111.522 13.5273 111.62 13.4492C111.874 13.2344 112.137 13.166 112.411 13.2441C112.684 13.3223 112.938 13.3906 113.173 13.4492C113.368 13.625 113.554 13.8008 113.729 13.9766C113.925 14.1523 114.091 14.3477 114.227 14.5625C114.364 14.543 114.52 14.543 114.696 14.5625C114.872 14.5625 115.057 14.543 115.253 14.5039C115.311 14.5039 115.37 14.4941 115.429 14.4746C115.487 14.4355 115.536 14.416 115.575 14.416C115.868 14.5137 116.014 14.6602 116.014 14.8555L115.985 15.0898ZM112.147 15.2949C111.62 15.5488 111.141 15.8516 110.712 16.2031C110.282 16.5352 109.872 16.8965 109.481 17.2871C109.384 17.3848 109.276 17.4824 109.159 17.5801C109.061 17.6582 108.973 17.7461 108.895 17.8438C108.817 17.9414 108.739 18.0586 108.661 18.1953C108.602 18.332 108.544 18.459 108.485 18.5762C108.446 18.6543 108.407 18.7227 108.368 18.7812C108.329 18.8203 108.29 18.8691 108.251 18.9277C108.212 19.0254 108.192 19.123 108.192 19.2207C108.212 19.3184 108.221 19.4258 108.221 19.543C108.221 19.6406 108.221 19.7383 108.221 19.8359C108.221 19.9336 108.231 20.0312 108.251 20.1289C108.309 20.3438 108.339 20.5586 108.339 20.7734C108.339 20.9297 108.348 21.125 108.368 21.3594C108.407 21.5742 108.485 21.7207 108.602 21.7988C108.72 21.877 108.837 21.8965 108.954 21.8574C109.091 21.8184 109.208 21.7891 109.305 21.7695C109.989 21.2422 110.634 20.6953 111.239 20.1289C111.845 19.543 112.382 18.8887 112.85 18.166C112.811 17.6582 112.802 17.1699 112.821 16.7012C112.86 16.2129 112.821 15.7637 112.704 15.3535C112.626 15.3145 112.528 15.3047 112.411 15.3242C112.313 15.3242 112.225 15.3145 112.147 15.2949ZM141.275 8.41016C141.314 8.46875 141.334 8.52734 141.334 8.58594C141.334 8.64453 141.363 8.69336 141.422 8.73242C141.383 8.9082 141.344 9.09375 141.305 9.28906C141.285 9.46484 141.275 9.64062 141.275 9.81641C141.275 9.89453 141.295 9.96289 141.334 10.0215C141.393 10.0801 141.422 10.1387 141.422 10.1973C141.324 10.4316 141.246 10.5684 141.188 10.6074C141.148 10.6465 141.129 10.6953 141.129 10.7539C141.031 10.793 140.953 10.8516 140.895 10.9297C140.855 11.0078 140.777 11.0469 140.66 11.0469C140.621 11.1055 140.572 11.1543 140.514 11.1934C140.475 11.2129 140.445 11.2617 140.426 11.3398C140.113 11.4766 139.762 11.4668 139.371 11.3105C139.273 11.1348 139.137 11.0078 138.961 10.9297C138.707 10.5586 138.697 10.1191 138.932 9.61133C138.971 9.51367 139.01 9.41602 139.049 9.31836C139.107 9.20117 139.156 9.12305 139.195 9.08398C139.41 8.92773 139.566 8.83008 139.664 8.79102C139.742 8.75195 139.82 8.70312 139.898 8.64453C139.996 8.58594 140.104 8.53711 140.221 8.49805C140.26 8.47852 140.309 8.46875 140.367 8.46875C140.445 8.46875 140.523 8.44922 140.602 8.41016C140.68 8.39062 140.748 8.37109 140.807 8.35156C140.865 8.33203 140.924 8.32227 140.982 8.32227L141.275 8.41016ZM136.734 21.3594C136.91 21.2812 137.125 21.252 137.379 21.2715C137.633 21.291 137.838 21.252 137.994 21.1543C138.072 21.0957 138.141 21.0371 138.199 20.9785C138.258 20.9199 138.326 20.9004 138.404 20.9199C138.717 20.8027 138.98 20.6855 139.195 20.5684C139.41 20.4512 139.645 20.3633 139.898 20.3047C139.957 20.2852 140.025 20.2461 140.104 20.1875C140.201 20.1289 140.27 20.0801 140.309 20.041C140.621 19.9434 140.846 19.8457 140.982 19.748C141.119 19.6504 141.246 19.5527 141.363 19.4551C141.5 19.3574 141.627 19.2598 141.744 19.1621C141.881 19.0449 142.047 18.9082 142.242 18.752C142.516 18.5957 142.74 18.459 142.916 18.3418C143.111 18.2246 143.316 18.0781 143.531 17.9023C143.57 17.8047 143.619 17.7363 143.678 17.6973C143.756 17.6387 143.814 17.5703 143.854 17.4922C144.205 17.4922 144.4 17.6289 144.439 17.9023C144.342 18.1172 144.205 18.293 144.029 18.4297C143.873 18.5664 143.727 18.7227 143.59 18.8984C143.434 18.9961 143.307 19.084 143.209 19.1621C143.111 19.2402 143.014 19.3574 142.916 19.5137C142.896 19.5137 142.838 19.5625 142.74 19.6602C142.643 19.7383 142.584 19.7773 142.564 19.7773C142.447 19.9141 142.359 20.002 142.301 20.041C142.262 20.0801 142.223 20.1094 142.184 20.1289C142.164 20.1289 142.125 20.1484 142.066 20.1875C142.027 20.2266 141.939 20.3047 141.803 20.4219C141.666 20.6367 141.49 20.8125 141.275 20.9492C140.865 21.3398 140.416 21.6816 139.928 21.9746C139.459 22.248 139.029 22.5215 138.639 22.7949C138.561 22.834 138.492 22.8926 138.434 22.9707C138.375 23.0293 138.307 23.0879 138.229 23.1465C138.131 23.2246 137.975 23.3027 137.76 23.3809C137.564 23.459 137.389 23.5273 137.232 23.5859C137.115 23.6641 137.008 23.7227 136.91 23.7617C136.48 23.7812 136.148 23.7129 135.914 23.5566C135.66 23.4199 135.465 23.3125 135.328 23.2344C135.191 23.1562 135.074 23.0293 134.977 22.8535C134.762 22.7559 134.625 22.5801 134.566 22.3262C134.527 22.0527 134.479 21.7891 134.42 21.5352C134.4 21.4375 134.381 21.3301 134.361 21.2129C134.342 21.0762 134.342 20.9395 134.361 20.8027C134.4 20.5879 134.43 20.3633 134.449 20.1289C134.469 19.875 134.518 19.6602 134.596 19.4844C134.693 19.2695 134.742 19.0547 134.742 18.8398C134.762 18.625 134.82 18.4102 134.918 18.1953C135.035 18 135.084 17.8926 135.064 17.873C135.064 17.8535 135.074 17.8242 135.094 17.7852C135.133 17.7266 135.172 17.668 135.211 17.6094C135.27 17.5508 135.318 17.4824 135.357 17.4043L135.533 16.9648C135.611 16.8281 135.699 16.6914 135.797 16.5547C135.895 16.418 135.973 16.252 136.031 16.0566C136.07 15.9395 136.119 15.832 136.178 15.7344C136.256 15.6367 136.334 15.5293 136.412 15.4121C136.471 15.2949 136.52 15.1777 136.559 15.0605C136.598 14.9238 136.646 14.7871 136.705 14.6504C136.764 14.4941 136.832 14.3379 136.91 14.1816C137.008 14.0254 137.105 13.8691 137.203 13.7129C137.281 13.5566 137.35 13.4395 137.408 13.3613C137.467 13.2832 137.584 13.2344 137.76 13.2148C137.838 13.1953 137.926 13.2051 138.023 13.2441C138.121 13.2637 138.219 13.2539 138.316 13.2148C138.57 13.0977 138.746 13.0391 138.844 13.0391C138.941 13.0391 139.01 13.0098 139.049 12.9512C139.264 12.9707 139.42 13.0391 139.518 13.1562C139.615 13.2734 139.732 13.3906 139.869 13.5078C139.752 14.0742 139.615 14.5137 139.459 14.8262C139.322 15.1191 139.166 15.4316 138.99 15.7637C138.893 15.9199 138.795 16.0957 138.697 16.291C138.6 16.4863 138.512 16.6621 138.434 16.8184C138.336 17.0332 138.229 17.2285 138.111 17.4043C138.014 17.5605 137.926 17.7461 137.848 17.9609C137.809 18.0586 137.76 18.1562 137.701 18.2539C137.662 18.332 137.623 18.4199 137.584 18.5176C137.545 18.6543 137.486 18.7812 137.408 18.8984C137.35 18.9961 137.291 19.0938 137.232 19.1914C137.174 19.3086 137.115 19.4258 137.057 19.543C136.998 19.6602 136.949 19.7871 136.91 19.9238C136.812 20.1582 136.754 20.3047 136.734 20.3633C136.715 20.4023 136.695 20.4414 136.676 20.4805C136.637 20.6953 136.578 20.8711 136.5 21.0078C136.422 21.1445 136.451 21.2422 136.588 21.3008L136.734 21.3594ZM167.064 16.0859C167.279 16.1445 167.415 16.2129 167.474 16.291C167.552 16.3691 167.591 16.4473 167.591 16.5254C167.435 16.7402 167.337 16.8867 167.298 16.9648C167.279 17.0234 167.22 17.0723 167.122 17.1113C166.868 17.502 166.575 17.8535 166.243 18.166C165.931 18.459 165.638 18.791 165.364 19.1621C165.267 19.2598 165.179 19.3574 165.101 19.4551C165.023 19.5527 164.935 19.6504 164.837 19.748C164.622 19.9043 164.427 20.0801 164.251 20.2754C164.075 20.4512 163.89 20.6172 163.695 20.7734C163.597 20.8516 163.499 20.9297 163.402 21.0078C163.323 21.0664 163.236 21.1445 163.138 21.2422C163.04 21.3398 162.952 21.418 162.874 21.4766C162.796 21.5352 162.708 21.6035 162.611 21.6816C162.493 21.8184 162.376 21.9551 162.259 22.0918C162.142 22.2285 162.025 22.375 161.907 22.5312C161.693 22.6289 161.497 22.7461 161.321 22.8828C161.146 23.0195 160.941 23.1367 160.706 23.2344C160.609 23.293 160.511 23.3809 160.413 23.498C160.335 23.6348 160.228 23.7227 160.091 23.7617C159.935 23.8203 159.769 23.8301 159.593 23.791C159.417 23.7715 159.271 23.7324 159.154 23.6738C159.056 23.5957 158.978 23.5469 158.919 23.5273C158.861 23.5078 158.812 23.498 158.773 23.498C158.597 23.2441 158.47 22.9707 158.392 22.6777C158.314 22.3652 158.226 22.043 158.128 21.7109C158.089 21.6133 158.06 21.5156 158.04 21.418C158.021 21.3008 158.001 21.1738 157.982 21.0371C157.962 20.959 157.943 20.8809 157.923 20.8027C157.923 20.7246 157.904 20.6367 157.864 20.5391C157.825 20.4414 157.786 20.3438 157.747 20.2461C157.708 20.1289 157.679 20.0117 157.659 19.8945C157.62 19.6602 157.611 19.4355 157.63 19.2207C157.63 18.9863 157.65 18.7617 157.689 18.5469C157.806 17.9023 157.972 17.2871 158.187 16.7012C158.421 16.1152 158.655 15.5586 158.89 15.0312C158.929 14.8164 158.978 14.6309 159.036 14.4746C159.114 14.3184 159.183 14.1426 159.241 13.9473C159.339 13.8105 159.407 13.6543 159.446 13.4785C159.486 13.3027 159.534 13.127 159.593 12.9512C159.652 12.7949 159.72 12.6289 159.798 12.4531C159.896 12.2578 159.964 12.0723 160.003 11.8965C160.062 11.7012 160.111 11.5059 160.15 11.3105C160.208 11.1152 160.277 10.9395 160.355 10.7832C160.511 10.373 160.657 9.98242 160.794 9.61133C160.931 9.24023 161.077 8.86914 161.234 8.49805C161.273 8.38086 161.312 8.26367 161.351 8.14648C161.39 8.0293 161.448 7.92188 161.527 7.82422C161.566 7.70703 161.614 7.60937 161.673 7.53125C161.732 7.43359 161.79 7.33594 161.849 7.23828C161.849 7.14062 161.878 7.07227 161.937 7.0332C162.015 6.97461 162.073 6.90625 162.113 6.82812C162.21 6.67187 162.279 6.51563 162.318 6.35938C162.376 6.20312 162.454 6.04688 162.552 5.89062L162.904 5.45117C162.943 5.37305 162.982 5.29492 163.021 5.2168C163.06 5.13867 163.118 5.07031 163.196 5.01172C163.411 4.66016 163.646 4.30859 163.9 3.95703C164.154 3.60547 164.417 3.23438 164.691 2.84375C164.866 2.57031 165.062 2.31641 165.277 2.08203C165.491 1.82813 165.716 1.58398 165.95 1.34961C166.029 1.25195 166.116 1.14453 166.214 1.02734C166.331 0.910156 166.448 0.841797 166.566 0.822266C166.741 0.802734 166.937 0.822266 167.152 0.880859C167.21 0.978516 167.259 1.08594 167.298 1.20312C167.357 1.30078 167.405 1.41797 167.445 1.55469C167.484 2.16016 167.464 2.74609 167.386 3.3125C167.308 3.87891 167.22 4.43555 167.122 4.98242C167.103 5.08008 167.093 5.17773 167.093 5.27539C167.113 5.35352 167.113 5.44141 167.093 5.53906C167.054 5.65625 167.005 5.8125 166.946 6.00781C166.888 6.18359 166.839 6.34961 166.8 6.50586C166.8 6.7793 166.741 7.02344 166.624 7.23828C166.507 7.45313 166.429 7.66797 166.39 7.88281C166.331 7.92188 166.292 7.99023 166.273 8.08789C166.273 8.16602 166.243 8.22461 166.185 8.26367C166.146 8.47852 166.077 8.67383 165.98 8.84961C165.902 9.02539 165.833 9.20117 165.775 9.37695C165.482 9.78711 165.179 10.1875 164.866 10.5781C164.573 10.9492 164.29 11.3398 164.017 11.75C163.685 12.2578 163.323 12.7461 162.933 13.2148C162.562 13.6836 162.21 14.1719 161.878 14.6797C161.624 14.8945 161.409 15.1387 161.234 15.4121C161.058 15.6855 160.833 15.9297 160.56 16.1445C160.462 16.5352 160.364 16.9648 160.267 17.4336C160.189 17.8828 160.101 18.3418 160.003 18.8105C159.984 18.9473 159.954 19.084 159.915 19.2207C159.876 19.3379 159.837 19.4648 159.798 19.6016C159.759 19.7578 159.749 19.9238 159.769 20.0996C159.788 20.2754 159.759 20.4414 159.681 20.5977C159.72 20.6953 159.739 20.8125 159.739 20.9492C159.759 21.0664 159.798 21.1738 159.857 21.2715C159.896 21.3301 159.945 21.3887 160.003 21.4473C160.081 21.5059 160.15 21.5352 160.208 21.5352C160.345 21.457 160.423 21.4277 160.443 21.4473C160.462 21.4473 160.491 21.4375 160.53 21.418C160.628 21.3594 160.726 21.2812 160.823 21.1836C160.921 21.0859 161.009 20.998 161.087 20.9199C161.185 20.8809 161.253 20.8418 161.292 20.8027C161.351 20.7441 161.409 20.6953 161.468 20.6562C161.527 20.6172 161.575 20.5879 161.614 20.5684C161.673 20.5488 161.722 20.5195 161.761 20.4805C162.034 20.1875 162.298 19.9727 162.552 19.8359C162.806 19.6797 163.011 19.4941 163.167 19.2793C163.363 19.1621 163.538 19.0547 163.695 18.957C163.812 18.8984 163.909 18.8203 163.988 18.7227C164.085 18.6055 164.202 18.5176 164.339 18.459C164.378 18.4004 164.417 18.3516 164.456 18.3125C164.495 18.2734 164.534 18.2246 164.573 18.166C164.808 18.0098 165.032 17.8535 165.247 17.6973C165.482 17.541 165.726 17.3848 165.98 17.2285C166.019 17.1309 166.077 17.0527 166.155 16.9941C166.253 16.9355 166.331 16.877 166.39 16.8184C166.448 16.7598 166.497 16.7012 166.536 16.6426C166.575 16.5645 166.644 16.5156 166.741 16.4961C166.761 16.3984 166.8 16.3301 166.859 16.291C166.937 16.252 167.005 16.1836 167.064 16.0859ZM165.452 5.1582C165.277 5.19727 165.15 5.28516 165.071 5.42188C165.013 5.55859 164.954 5.71484 164.896 5.89062C164.818 6.04688 164.749 6.16406 164.691 6.24219C164.652 6.32031 164.642 6.4375 164.661 6.59375C164.056 7.58984 163.499 8.63477 162.991 9.72852C162.503 10.8223 162.005 11.9258 161.497 13.0391C161.888 12.6484 162.249 12.1797 162.581 11.6328C162.933 11.0859 163.294 10.6172 163.665 10.2266C163.939 9.5625 164.241 8.94727 164.573 8.38086C164.905 7.79492 165.159 7.14062 165.335 6.41797C165.257 6.18359 165.267 5.97852 165.364 5.80273C165.462 5.60742 165.501 5.39258 165.482 5.1582H165.452ZM213.396 5.89062C212.869 6.06641 212.371 6.26172 211.902 6.47656C211.433 6.67187 210.984 6.90625 210.554 7.17969C210.418 7.27734 210.3 7.39453 210.203 7.53125C210.105 7.64844 209.988 7.75586 209.851 7.85352C209.461 8.14648 209.05 8.29297 208.621 8.29297C208.445 8.19531 208.337 8.09766 208.298 8C208.455 7.60937 208.64 7.28711 208.855 7.0332C209.089 6.75977 209.324 6.48633 209.558 6.21289C209.773 6.07617 209.968 5.93945 210.144 5.80273C210.32 5.66602 210.496 5.51953 210.671 5.36328C210.847 5.20703 211.023 5.05078 211.199 4.89453C211.375 4.73828 211.56 4.61133 211.755 4.51367C212.029 4.37695 212.283 4.25 212.517 4.13281C212.771 3.99609 213.015 3.84961 213.25 3.69336C213.601 3.41992 213.992 3.17578 214.421 2.96094C214.871 2.74609 215.3 2.54102 215.711 2.3457C215.925 2.24805 216.13 2.16016 216.326 2.08203C216.541 2.00391 216.755 1.94531 216.97 1.90625C217.185 1.84766 217.41 1.79883 217.644 1.75977C217.879 1.7207 218.103 1.66211 218.318 1.58398C218.63 1.54492 218.923 1.47656 219.197 1.37891C219.49 1.28125 219.802 1.24219 220.134 1.26172C220.212 1.26172 220.271 1.27148 220.31 1.29102C220.349 1.31055 220.408 1.33008 220.486 1.34961C220.74 1.34961 220.916 1.36914 221.013 1.4082C221.13 1.44727 221.238 1.48633 221.336 1.52539C221.531 1.60352 221.707 1.69141 221.863 1.78906C222.019 1.86719 222.185 1.95508 222.361 2.05273C222.459 2.11133 222.537 2.16992 222.595 2.22852C222.654 2.28711 222.722 2.3457 222.8 2.4043C222.957 2.50195 223.054 2.58008 223.093 2.63867C223.152 2.67773 223.211 2.72656 223.269 2.78516C223.367 2.88281 223.455 2.96094 223.533 3.01953C223.63 3.05859 223.67 3.14648 223.65 3.2832C223.728 3.49805 223.806 3.71289 223.884 3.92773C223.962 4.12305 224.002 4.33789 224.002 4.57227C224.002 4.66992 223.982 4.76758 223.943 4.86523C223.923 4.96289 223.894 5.06055 223.855 5.1582C223.816 5.29492 223.787 5.42188 223.767 5.53906C223.767 5.65625 223.738 5.76367 223.679 5.86133C223.64 6.13477 223.591 6.4082 223.533 6.68164C223.494 6.93555 223.455 7.20898 223.416 7.50195C223.396 7.59961 223.386 7.70703 223.386 7.82422C223.386 7.94141 223.377 8.04883 223.357 8.14648C223.318 8.40039 223.25 8.64453 223.152 8.87891C223.054 9.09375 223.005 9.30859 223.005 9.52344C222.888 9.93359 222.761 10.2656 222.625 10.5195C222.488 10.7539 222.341 10.998 222.185 11.252C221.99 11.5254 221.824 11.8379 221.687 12.1895C221.55 12.5215 221.404 12.8535 221.248 13.1855C221.209 13.2441 221.179 13.3125 221.16 13.3906C221.16 13.4688 221.14 13.5371 221.101 13.5957C220.925 13.8105 220.828 13.957 220.808 14.0352C220.789 14.1133 220.759 14.2012 220.72 14.2988C220.662 14.4355 220.593 14.5918 220.515 14.7676C220.457 14.9238 220.398 15.0801 220.339 15.2363C220.3 15.2949 220.242 15.4023 220.164 15.5586C220.105 15.6758 220.027 15.793 219.929 15.9102C219.851 16.0273 219.763 16.1543 219.666 16.291C219.353 16.7793 219.031 17.2383 218.699 17.668C218.367 18.0977 218.005 18.5176 217.615 18.9277C217.127 19.416 216.609 19.8652 216.062 20.2754C215.535 20.6855 215.007 21.1152 214.48 21.5645C214.285 21.7207 214.089 21.8867 213.894 22.0625C213.699 22.2188 213.484 22.375 213.25 22.5312C213.152 22.6094 213.045 22.6777 212.927 22.7363C212.83 22.7949 212.732 22.873 212.634 22.9707C212.322 23.2637 211.931 23.5176 211.462 23.7324C211.228 23.791 211.082 23.8301 211.023 23.8496C210.964 23.8887 210.916 23.9082 210.877 23.9082C210.759 23.9473 210.642 23.9668 210.525 23.9668C210.408 23.9668 210.291 23.9766 210.173 23.9961C210.115 23.9961 210.056 24.0059 209.998 24.0254C209.939 24.0449 209.871 24.0547 209.793 24.0547C209.636 24.0352 209.47 23.9961 209.295 23.9375C209.138 23.8789 208.982 23.8301 208.826 23.791C208.748 23.7715 208.679 23.752 208.621 23.7324C208.562 23.7129 208.494 23.6934 208.416 23.6738C208.279 23.5957 208.152 23.5273 208.035 23.4688C207.918 23.4102 207.8 23.3418 207.683 23.2637C207.39 23.1855 207.214 23.0781 207.156 22.9414C207.097 22.8047 207.019 22.6777 206.921 22.5605C206.804 22.1895 206.707 21.8574 206.629 21.5645C206.57 21.2715 206.492 20.9395 206.394 20.5684C206.355 20.4316 206.316 20.3145 206.277 20.2168C206.257 20.0996 206.257 19.9727 206.277 19.8359C206.296 19.7383 206.336 19.6309 206.394 19.5137C206.453 19.3965 206.511 19.2793 206.57 19.1621C206.726 18.8887 206.843 18.6152 206.921 18.3418C207.019 18.0488 207.146 17.7656 207.302 17.4922C207.341 17.4531 207.371 17.4043 207.39 17.3457C207.429 17.2871 207.468 17.2383 207.507 17.1992C207.566 17.082 207.615 16.9648 207.654 16.8477C207.712 16.7305 207.761 16.623 207.8 16.5254C207.957 16.1934 208.113 15.8711 208.269 15.5586C208.445 15.2266 208.63 14.9043 208.826 14.5918C209.041 14.2207 209.216 13.918 209.353 13.6836C209.509 13.4297 209.695 13.1953 209.91 12.9805C210.027 12.6484 210.173 12.3555 210.349 12.1016C210.525 11.8281 210.671 11.5254 210.789 11.1934C210.906 11.0371 211.004 10.8516 211.082 10.6367C211.179 10.4219 211.277 10.2168 211.375 10.0215C211.531 9.63086 211.687 9.29883 211.843 9.02539C211.882 8.9668 211.921 8.9082 211.961 8.84961C212 8.79102 212.029 8.72266 212.048 8.64453C212.107 8.46875 212.175 8.29297 212.254 8.11719C212.332 7.94141 212.41 7.77539 212.488 7.61914C212.644 7.28711 212.791 6.99414 212.927 6.74023C213.084 6.4668 213.24 6.18359 213.396 5.89062ZM219.841 3.48828C219.568 3.50781 219.304 3.56641 219.05 3.66406C218.816 3.74219 218.572 3.83008 218.318 3.92773C218.142 3.98633 217.976 4.05469 217.82 4.13281C217.664 4.21094 217.507 4.28906 217.351 4.36719C217.175 4.46484 217.009 4.5625 216.853 4.66016C216.716 4.75781 216.57 4.86523 216.414 4.98242C216.394 5.04102 216.365 5.09961 216.326 5.1582C216.306 5.19727 216.287 5.24609 216.267 5.30469C216.052 5.51953 215.886 5.76367 215.769 6.03711C215.671 6.29102 215.554 6.53516 215.418 6.76953C215.261 7.02344 215.115 7.27734 214.978 7.53125C214.861 7.76562 214.734 8.00977 214.597 8.26367C214.5 8.47852 214.392 8.67383 214.275 8.84961C214.177 9.00586 214.089 9.18164 214.011 9.37695C213.757 9.78711 213.591 10.1094 213.513 10.3438C213.455 10.4805 213.377 10.6172 213.279 10.7539C213.201 10.8711 213.142 11.0078 213.103 11.1641C213.045 11.3008 212.976 11.4375 212.898 11.5742C212.839 11.6914 212.791 11.8184 212.752 11.9551C212.712 12.0527 212.683 12.1602 212.664 12.2773C212.664 12.3945 212.644 12.502 212.605 12.5996C212.546 12.7754 212.478 12.9512 212.4 13.127C212.341 13.3027 212.283 13.498 212.224 13.7129C212.127 13.8691 212.019 14.0059 211.902 14.123C211.804 14.2402 211.716 14.3672 211.638 14.5039C211.56 14.7188 211.482 14.875 211.404 14.9727C211.345 15.0508 211.296 15.1387 211.257 15.2363C211.16 15.3926 211.072 15.5586 210.994 15.7344C210.916 15.9102 210.828 16.0859 210.73 16.2617C210.691 16.3203 210.642 16.3789 210.584 16.4375C210.545 16.4961 210.505 16.5645 210.466 16.6426C210.408 16.7598 210.359 16.8867 210.32 17.0234C210.281 17.1406 210.232 17.2773 210.173 17.4336C210.115 17.5703 210.046 17.6973 209.968 17.8145C209.91 17.9316 209.861 18.0488 209.822 18.166C209.744 18.3027 209.675 18.4395 209.617 18.5762C209.558 18.7129 209.509 18.8398 209.47 18.957C209.412 19.0938 209.363 19.2305 209.324 19.3672C209.285 19.5039 209.236 19.6406 209.177 19.7773C209.06 20.0117 208.982 20.1973 208.943 20.334C208.904 20.4512 208.865 20.5684 208.826 20.6855C208.787 20.8027 208.738 20.9297 208.679 21.0664C208.64 21.1836 208.621 21.3008 208.621 21.418C208.543 21.4766 208.494 21.5449 208.474 21.623C208.455 21.7012 208.445 21.7891 208.445 21.8867C208.445 21.9648 208.445 22.0527 208.445 22.1504C208.445 22.2285 208.416 22.2969 208.357 22.3555C208.67 22.3164 208.914 22.2383 209.089 22.1211C209.285 22.0039 209.519 21.9258 209.793 21.8867C209.988 21.7891 210.154 21.6719 210.291 21.5352C210.447 21.3789 210.662 21.291 210.935 21.2715C211.248 21.0762 211.521 20.8711 211.755 20.6562C212.009 20.4219 212.322 20.2363 212.693 20.0996C212.986 19.8457 213.289 19.6113 213.601 19.3965C213.914 19.1621 214.187 18.8789 214.421 18.5469C214.519 18.5078 214.656 18.4199 214.832 18.2832C214.949 18.1465 215.056 18.0098 215.154 17.873C215.271 17.7363 215.379 17.5898 215.476 17.4336C215.671 17.2773 215.837 17.1016 215.974 16.9062C216.111 16.7109 216.287 16.5449 216.502 16.4082C216.58 16.2129 216.687 16.0566 216.824 15.9395C216.961 15.8027 217.087 15.6562 217.205 15.5C217.361 15.3047 217.498 15.0996 217.615 14.8848C217.752 14.6699 217.898 14.4746 218.054 14.2988C218.328 13.791 218.611 13.3027 218.904 12.834C219.216 12.3652 219.48 11.8477 219.695 11.2812C219.89 11.0273 220.056 10.7637 220.193 10.4902C220.349 10.1973 220.476 9.91406 220.574 9.64062C220.711 9.50391 220.798 9.32812 220.837 9.11328C220.896 8.87891 221.023 8.74219 221.218 8.70312C221.375 8.46875 221.453 8.19531 221.453 7.88281C221.472 7.57031 221.502 7.26758 221.541 6.97461C221.56 6.87695 221.56 6.78906 221.541 6.71094C221.521 6.63281 221.511 6.55469 221.511 6.47656C221.531 6.32031 221.55 6.16406 221.57 6.00781C221.609 5.83203 221.609 5.68555 221.57 5.56836C221.472 5.41211 221.414 5.31445 221.394 5.27539C221.394 5.2168 221.384 5.16797 221.365 5.12891C221.326 5.01172 221.306 4.9043 221.306 4.80664C221.267 4.65039 221.238 4.54297 221.218 4.48438C221.218 4.40625 221.189 4.31836 221.13 4.2207C221.033 4.08398 220.955 3.95703 220.896 3.83984C220.857 3.72266 220.789 3.61523 220.691 3.51758C220.535 3.49805 220.388 3.48828 220.252 3.48828C220.134 3.48828 219.998 3.48828 219.841 3.48828ZM248.618 12.6875C248.696 12.8047 248.813 12.8828 248.97 12.9219C249.126 12.9414 249.253 12.9902 249.35 13.0684C249.507 13.1074 249.624 13.1367 249.702 13.1562C249.8 13.1562 249.897 13.166 249.995 13.1855C250.132 13.3223 250.21 13.3906 250.229 13.3906C250.249 13.3906 250.249 13.4102 250.229 13.4492C250.483 13.6836 250.718 13.9473 250.932 14.2402C250.971 14.3184 251.001 14.4258 251.02 14.5625C251.059 14.6797 251.098 14.7969 251.137 14.9141C251.177 15.0117 251.196 15.1094 251.196 15.207C251.216 15.3047 251.235 15.4023 251.255 15.5C251.294 15.832 251.274 16.1348 251.196 16.4082C251.118 16.6816 251.059 16.9551 251.02 17.2285C250.923 17.3652 250.874 17.502 250.874 17.6387C250.874 17.7754 250.854 17.9121 250.815 18.0488C250.796 18.1074 250.766 18.166 250.727 18.2246C250.708 18.2832 250.688 18.3516 250.669 18.4297C250.61 18.7031 250.512 18.9473 250.376 19.1621C250.259 19.3574 250.151 19.5625 250.054 19.7773C250.034 19.9141 250.005 20.041 249.966 20.1582C249.927 20.2754 249.897 20.3828 249.878 20.4805C249.858 20.5586 249.809 20.627 249.731 20.6855C249.673 20.7441 249.663 20.8125 249.702 20.8906C249.546 20.9688 249.468 21.0859 249.468 21.2422C249.429 21.2812 249.37 21.3301 249.292 21.3887C249.233 21.4277 249.184 21.4961 249.145 21.5938C248.872 21.7891 248.686 21.9355 248.589 22.0332C248.511 22.1113 248.423 22.1895 248.325 22.2676C248.247 22.3066 248.169 22.3652 248.091 22.4434C248.032 22.5215 247.964 22.5801 247.886 22.6191C247.827 22.6582 247.759 22.6973 247.68 22.7363C247.622 22.7754 247.563 22.8145 247.505 22.8535C247.368 22.9512 247.231 23.0391 247.095 23.1172C246.958 23.2148 246.811 23.3125 246.655 23.4102C246.538 23.4688 246.43 23.5273 246.333 23.5859C246.255 23.6445 246.167 23.6934 246.069 23.7324C245.971 23.7715 245.854 23.8008 245.718 23.8203C245.6 23.8398 245.493 23.8691 245.395 23.9082C245.005 23.9668 244.624 23.9375 244.253 23.8203C243.882 23.7031 243.559 23.5762 243.286 23.4395C243.071 23.3418 242.827 23.2539 242.554 23.1758C242.3 23.0977 242.075 22.9805 241.88 22.8242C241.567 22.5703 241.343 22.248 241.206 21.8574C241.069 21.4473 240.893 21.0664 240.679 20.7148C240.698 20.5781 240.669 20.4707 240.591 20.3926C240.532 20.3145 240.473 20.2266 240.415 20.1289C240.376 20.0312 240.327 19.9531 240.268 19.8945C240.229 19.8164 240.19 19.748 240.151 19.6895C240.073 19.3965 240.024 19.2305 240.005 19.1914C239.77 19.2305 239.614 19.3672 239.536 19.6016C239.458 19.8164 239.36 20.0215 239.243 20.2168C239.223 20.334 239.184 20.4414 239.126 20.5391C239.087 20.6172 239.038 20.7051 238.979 20.8027C238.94 20.9004 238.921 20.9883 238.921 21.0664C238.921 21.1445 238.882 21.2031 238.804 21.2422C238.569 21.2617 238.442 21.3203 238.423 21.418C238.403 21.5156 238.345 21.5547 238.247 21.5352C238.266 21.6719 238.237 21.7988 238.159 21.916C238.081 22.0137 238.061 22.1309 238.1 22.2676C238.081 22.3652 238.042 22.4434 237.983 22.502C237.944 22.5605 237.905 22.6387 237.866 22.7363C237.729 22.7949 237.544 22.8438 237.309 22.8828C237.095 22.9219 236.938 22.873 236.841 22.7363C236.665 22.6973 236.528 22.6484 236.43 22.5898C236.333 22.5312 236.284 22.4434 236.284 22.3262C236.284 22.248 236.313 22.1895 236.372 22.1504C236.411 22.1113 236.411 22.043 236.372 21.9453C236.509 21.6328 236.675 21.3594 236.87 21.125C237.065 20.8711 237.221 20.5879 237.339 20.2754C237.495 20.002 237.641 19.7285 237.778 19.4551C237.934 19.1621 238.091 18.8789 238.247 18.6055C238.403 18.2734 238.569 17.9707 238.745 17.6973C238.921 17.4238 239.077 17.1211 239.214 16.7891C239.253 16.7109 239.272 16.6523 239.272 16.6133C239.292 16.5547 239.282 16.4863 239.243 16.4082C239.438 15.8418 239.673 15.3145 239.946 14.8262C240.22 14.3379 240.483 13.8398 240.737 13.332C240.835 12.9805 240.971 12.6484 241.147 12.3359C241.323 12.0039 241.479 11.6621 241.616 11.3105C241.831 10.9004 242.016 10.5391 242.173 10.2266C242.348 9.91406 242.524 9.5918 242.7 9.25977C242.837 9.10352 242.925 8.9375 242.964 8.76172C243.022 8.56641 243.11 8.41992 243.227 8.32227C243.266 8.22461 243.305 8.13672 243.345 8.05859C243.403 7.98047 243.452 7.89258 243.491 7.79492C243.647 7.4043 243.794 7.12109 243.93 6.94531C244.067 6.75 244.155 6.54492 244.194 6.33008C244.292 6.23242 244.38 6.10547 244.458 5.94922C244.555 5.77344 244.643 5.60742 244.721 5.45117C244.761 5.35352 244.809 5.23633 244.868 5.09961C244.946 4.96289 245.014 4.81641 245.073 4.66016C245.112 4.60156 245.141 4.55273 245.161 4.51367C245.18 4.47461 245.2 4.41602 245.22 4.33789C245.317 4.24023 245.386 4.13281 245.425 4.01562C245.464 3.87891 245.522 3.76172 245.6 3.66406C245.464 3.52734 245.298 3.49805 245.102 3.57617C244.907 3.6543 244.721 3.74219 244.546 3.83984C244.214 3.97656 243.901 4.12305 243.608 4.2793C243.315 4.43555 243.032 4.5918 242.759 4.74805C242.466 4.9043 242.173 5.01172 241.88 5.07031C241.606 5.12891 241.333 5.1875 241.059 5.24609C240.903 5.14844 240.796 5.13867 240.737 5.2168C240.698 5.27539 240.63 5.27539 240.532 5.2168C240.493 5.2168 240.444 5.23633 240.386 5.27539C240.346 5.29492 240.278 5.30469 240.18 5.30469C240.122 5.20703 240.132 5.13867 240.21 5.09961C240.307 5.04102 240.366 4.97266 240.386 4.89453C240.835 4.62109 241.304 4.37695 241.792 4.16211C242.28 3.92773 242.749 3.67383 243.198 3.40039C243.686 3.10742 244.116 2.87305 244.487 2.69727C244.858 2.52148 245.229 2.31641 245.6 2.08203C246.05 1.92578 246.46 1.75977 246.831 1.58398C247.221 1.38867 247.671 1.27148 248.179 1.23242C248.393 1.0957 248.637 1.04687 248.911 1.08594C249.184 1.10547 249.438 1.06641 249.673 0.96875C249.829 0.96875 250.014 0.96875 250.229 0.96875C250.464 0.949219 250.679 0.949219 250.874 0.96875C251.323 0.988281 251.665 1.00781 251.899 1.02734C252.153 1.04687 252.387 1.08594 252.602 1.14453C252.68 1.16406 252.759 1.18359 252.837 1.20312C252.934 1.22266 253.022 1.24219 253.1 1.26172C253.315 1.33984 253.53 1.4082 253.745 1.4668C253.979 1.50586 254.175 1.57422 254.331 1.67188C254.624 1.92578 254.839 2.14062 254.975 2.31641C255.132 2.47266 255.239 2.66797 255.298 2.90234C255.415 3.17578 255.522 3.41992 255.62 3.63477C255.718 3.84961 255.776 4.08398 255.796 4.33789C255.815 4.43555 255.815 4.54297 255.796 4.66016C255.796 4.77734 255.796 4.9043 255.796 5.04102C255.776 5.2168 255.776 5.40234 255.796 5.59766C255.815 5.77344 255.815 5.96875 255.796 6.18359C255.776 6.41797 255.727 6.65234 255.649 6.88672C255.591 7.12109 255.512 7.3457 255.415 7.56055C255.317 7.77539 255.249 7.99023 255.21 8.20508C255.19 8.41992 255.112 8.61523 254.975 8.79102C254.858 9.00586 254.761 9.18164 254.682 9.31836C254.624 9.43555 254.555 9.5625 254.477 9.69922C254.438 9.73828 254.389 9.77734 254.331 9.81641C254.292 9.85547 254.262 9.91406 254.243 9.99219C254.028 10.168 253.823 10.3535 253.628 10.5488C253.432 10.7246 253.198 10.8711 252.925 10.9883C252.729 11.1836 252.505 11.3691 252.251 11.5449C252.016 11.7012 251.782 11.8574 251.548 12.0137C251.489 12.0527 251.421 12.1016 251.343 12.1602C251.284 12.1992 251.196 12.2285 251.079 12.248C250.923 12.2871 250.786 12.3164 250.669 12.3359C250.571 12.3555 250.434 12.3848 250.259 12.4238C250.024 12.4434 249.79 12.4727 249.555 12.5117C249.321 12.5508 249.096 12.5898 248.882 12.6289L248.618 12.6875ZM246.889 11.5156C247.163 11.3984 247.436 11.2812 247.71 11.1641C247.983 11.0273 248.257 10.9102 248.53 10.8125C248.686 10.7734 248.833 10.7344 248.97 10.6953C249.106 10.6562 249.233 10.6074 249.35 10.5488C249.565 10.4121 249.712 10.3242 249.79 10.2852C249.868 10.2461 249.946 10.1973 250.024 10.1387C250.141 10.0801 250.249 10.002 250.346 9.9043C250.464 9.80664 250.571 9.72852 250.669 9.66992C250.786 9.57227 250.893 9.49414 250.991 9.43555C251.108 9.35742 251.225 9.26953 251.343 9.17188C251.421 9.11328 251.499 9.06445 251.577 9.02539C251.675 8.9668 251.762 8.9082 251.841 8.84961C251.977 8.71289 252.085 8.56641 252.163 8.41016C252.261 8.25391 252.378 8.11719 252.514 8C252.612 7.80469 252.7 7.60937 252.778 7.41406C252.856 7.21875 252.925 7.01367 252.983 6.79883C253.042 6.62305 253.1 6.45703 253.159 6.30078C253.218 6.125 253.266 5.95898 253.305 5.80273C253.325 5.60742 253.345 5.4707 253.364 5.39258C253.403 5.31445 253.413 5.23633 253.393 5.1582C253.393 5.08008 253.374 5.00195 253.335 4.92383C253.296 4.8457 253.257 4.77734 253.218 4.71875C253.12 4.50391 253.003 4.29883 252.866 4.10352C252.729 3.9082 252.602 3.71289 252.485 3.51758C252.309 3.38086 252.095 3.25391 251.841 3.13672C251.606 3 251.343 2.98047 251.05 3.07812C251.011 3.03906 250.942 3.01953 250.845 3.01953C250.747 3 250.679 3.00977 250.639 3.04883C250.503 3.0293 250.356 3.0293 250.2 3.04883C250.063 3.04883 249.917 3.05859 249.761 3.07812C249.604 3.09766 249.458 3.12695 249.321 3.16602C249.184 3.18555 249.087 3.20508 249.028 3.22461C248.989 3.26367 248.95 3.32227 248.911 3.40039C248.872 3.45898 248.833 3.51758 248.794 3.57617C248.696 3.75195 248.598 3.87891 248.501 3.95703C248.423 4.01562 248.335 4.12305 248.237 4.2793C248.159 4.37695 248.091 4.46484 248.032 4.54297C247.973 4.62109 247.925 4.70898 247.886 4.80664C247.788 4.8457 247.72 4.89453 247.68 4.95312C247.661 5.01172 247.632 5.07031 247.593 5.12891C247.495 5.16797 247.436 5.24609 247.417 5.36328C247.397 5.48047 247.348 5.55859 247.27 5.59766C247.114 5.83203 246.997 6.03711 246.919 6.21289C246.86 6.36914 246.782 6.58398 246.684 6.85742C246.528 7.15039 246.382 7.43359 246.245 7.70703C246.128 7.96094 246.001 8.22461 245.864 8.49805C245.825 8.61523 245.786 8.72266 245.747 8.82031C245.708 8.91797 245.669 9.01562 245.63 9.11328C245.571 9.21094 245.503 9.30859 245.425 9.40625C245.346 9.48438 245.268 9.57227 245.19 9.66992C244.975 10.002 244.79 10.334 244.634 10.666C244.497 10.998 244.331 11.3203 244.136 11.6328C243.706 12.2773 243.315 12.9219 242.964 13.5664C242.866 13.6445 242.817 13.7324 242.817 13.8301C242.837 13.9277 242.788 13.9961 242.671 14.0352C242.514 14.25 242.387 14.416 242.29 14.5332C242.251 14.6113 242.212 14.6895 242.173 14.7676C242.134 14.8457 242.095 14.9336 242.055 15.0312C241.997 15.1289 241.929 15.2363 241.85 15.3535C241.792 15.4512 241.743 15.5488 241.704 15.6465C241.606 15.8613 241.499 16.0762 241.382 16.291C241.264 16.4863 241.157 16.6719 241.059 16.8477C241.02 16.9258 240.981 16.9941 240.942 17.0527C240.903 17.1113 240.864 17.1699 240.825 17.2285C240.786 17.3848 240.757 17.4727 240.737 17.4922C240.718 17.4922 240.698 17.5117 240.679 17.5508C240.659 17.6484 240.669 17.7363 240.708 17.8145C240.747 17.873 240.786 17.9414 240.825 18.0195C240.845 18.0781 240.854 18.1367 240.854 18.1953C240.854 18.2344 240.864 18.2832 240.884 18.3418C240.962 18.5566 241.02 18.7129 241.059 18.8105C241.118 18.8887 241.186 19.0156 241.264 19.1914C241.304 19.2695 241.333 19.3379 241.352 19.3965C241.372 19.4551 241.401 19.5137 241.44 19.5723C241.479 19.6504 241.509 19.7188 241.528 19.7773C241.567 19.8359 241.606 19.9141 241.645 20.0117C241.762 20.2461 241.909 20.4512 242.085 20.627C242.261 20.8027 242.427 20.998 242.583 21.2129C242.759 21.3301 242.954 21.3789 243.169 21.3594C243.403 21.3398 243.628 21.3398 243.843 21.3594C244.038 21.2812 244.233 21.2715 244.429 21.3301C244.643 21.3691 244.848 21.3887 245.044 21.3887C245.102 21.3691 245.151 21.3496 245.19 21.3301C245.249 21.291 245.307 21.291 245.366 21.3301C245.483 21.2715 245.6 21.2129 245.718 21.1543C245.854 21.0957 245.981 21.0371 246.098 20.9785C246.274 20.8223 246.45 20.6855 246.626 20.5684C246.802 20.4316 246.948 20.2656 247.065 20.0703C247.104 20.0312 247.134 19.9922 247.153 19.9531C247.192 19.8945 247.231 19.8359 247.27 19.7773C247.348 19.6797 247.407 19.582 247.446 19.4844C247.505 19.3672 247.554 19.25 247.593 19.1328C247.807 18.918 247.973 18.7129 248.091 18.5176C248.208 18.3027 248.345 18.1074 248.501 17.9316C248.54 17.7754 248.618 17.6387 248.735 17.5215C248.852 17.4043 248.921 17.248 248.94 17.0527C248.94 16.6816 248.911 16.4082 248.852 16.2324C248.794 16.0371 248.735 15.8516 248.677 15.6758C248.637 15.5977 248.618 15.5195 248.618 15.4414C248.618 15.3438 248.598 15.2559 248.559 15.1777C248.403 14.9434 248.276 14.748 248.179 14.5918C248.1 14.416 248.003 14.2793 247.886 14.1816C247.807 14.1426 247.72 14.123 247.622 14.123C247.544 14.123 247.466 14.1035 247.387 14.0645C247.173 13.9863 246.958 13.9082 246.743 13.8301C246.528 13.752 246.294 13.6934 246.04 13.6543C245.942 13.5957 245.854 13.5371 245.776 13.4785C245.698 13.4199 245.61 13.3711 245.512 13.332C245.434 13.2148 245.346 13.1465 245.249 13.127C245.249 13.0098 245.2 12.9316 245.102 12.8926C245.005 12.8535 244.936 12.7852 244.897 12.6875C244.858 12.5898 244.839 12.4824 244.839 12.3652C244.839 12.248 244.809 12.1406 244.751 12.043C244.848 11.9844 244.966 11.9648 245.102 11.9844C245.239 11.9844 245.356 11.9355 245.454 11.8379C245.61 11.8379 245.747 11.8184 245.864 11.7793C245.981 11.7207 246.118 11.6719 246.274 11.6328C246.391 11.6133 246.499 11.623 246.596 11.6621C246.694 11.6816 246.792 11.6621 246.889 11.6035V11.5156Z" fill="#FF8A00"/>
</svg>
