<svg width="20" height="20" viewBox="0 0 20 20" fill="none" xmlns="http://www.w3.org/2000/svg">
<path d="M15.6245 20H4.37687C2.351 20 0.702209 18.3512 0.702209 16.3266V3.67466C0.702209 1.64879 2.351 0 4.37687 0H15.6245C17.6504 0 19.2979 1.64879 19.2979 3.67466V16.3266C19.2979 18.3525 17.6504 20 15.6245 20ZM4.37687 1.6969C3.28592 1.6969 2.39911 2.58501 2.39911 3.67466V16.3266C2.39911 17.4163 3.28722 18.3044 4.37687 18.3044H15.6245C16.7155 18.3044 17.6023 17.415 17.6023 16.3266V3.67466C17.6023 2.58371 16.7142 1.6969 15.6245 1.6969H4.37687Z" fill="#818181"/>
<path d="M13.8802 5.92139C13.5404 5.92139 13.2211 6.05378 12.9808 6.29416L8.27415 11.0084L7.01971 9.75411C6.77954 9.51389 6.46021 9.38155 6.12054 9.38155C5.78082 9.38155 5.46149 9.51389 5.22127 9.75405C4.9811 9.99422 4.84888 10.3136 4.84888 10.6532C4.84888 10.9929 4.9811 11.3122 5.22127 11.5523L7.37515 13.7062C7.61532 13.9464 7.93465 14.0788 8.27438 14.0788C8.61393 14.0788 8.93338 13.9464 9.17382 13.706L14.7794 8.09233C15.2752 7.59644 15.2751 6.78966 14.7794 6.29378C14.5393 6.05366 14.2199 5.92139 13.8802 5.92139Z" fill="#818181"/>
</svg>
